<svg width="32" height="32" viewBox="0 0 32 32" fill="none" xmlns="http://www.w3.org/2000/svg">
<rect width="32" height="32" rx="8" fill="#ECEDF6"/>
<path d="M14.8667 22.0002C14.9783 22.2031 15.1423 22.3724 15.3417 22.4903C15.5411 22.6082 15.7684 22.6704 16 22.6704C16.2316 22.6704 16.459 22.6082 16.6584 22.4903C16.8577 22.3724 17.0218 22.2031 17.1334 22.0002M12 13.3335C12 12.2726 12.4214 11.2552 13.1716 10.5051C13.9217 9.75492 14.9391 9.3335 16 9.3335C17.0609 9.3335 18.0783 9.75492 18.8284 10.5051C19.5786 11.2552 20 12.2726 20 13.3335C20 18.0002 22 19.3335 22 19.3335H10C10 19.3335 12 18.0002 12 13.3335Z" stroke="#424CA8" stroke-width="1.5" stroke-linecap="round" stroke-linejoin="round"/>
</svg>
