<svg width="32" height="32" viewBox="0 0 32 32" fill="none" xmlns="http://www.w3.org/2000/svg">
<rect width="32" height="32" rx="8" fill="#424CA8"/>
<path d="M21.3333 12.6668H19.3333C18.9797 12.6668 18.6406 12.5264 18.3905 12.2763C18.1405 12.0263 18 11.6871 18 11.3335V9.3335M10 13.0669V21.6002C10 21.8831 10.1124 22.1544 10.3124 22.3545C10.5125 22.5545 10.7838 22.6669 11.0667 22.6669H17.6M14 20.0002C13.6464 20.0002 13.3072 19.8597 13.0572 19.6096C12.8071 19.3596 12.6667 19.0205 12.6667 18.6668V10.6668C12.6667 10.3132 12.8071 9.97407 13.0572 9.72402C13.3072 9.47397 13.6464 9.3335 14 9.3335H18.6667L21.3333 12.0002V18.6668C21.3333 19.0205 21.1929 19.3596 20.9428 19.6096C20.6928 19.8597 20.3536 20.0002 20 20.0002H14Z" stroke="white" stroke-width="1.5" stroke-linecap="round" stroke-linejoin="round"/>
</svg>
