<svg width="32" height="32" viewBox="0 0 32 32" fill="none" xmlns="http://www.w3.org/2000/svg">
<rect width="32" height="32" rx="8" fill="#ECEDF6"/>
<g clip-path="url(#clip0_1724_33192)">
<path d="M9.33398 22.6668L10.0007 22.0002M10.0007 22.0002H12.0007L18.0007 16.0002M10.0007 22.0002V20.0002L16.0007 14.0002M18.0007 12.0002L20.2674 9.73355C20.5326 9.46833 20.8923 9.31934 21.2674 9.31934C21.6424 9.31934 22.0022 9.46833 22.2674 9.73355C22.5326 9.99877 22.6816 10.3585 22.6816 10.7335C22.6816 11.1086 22.5326 11.4683 22.2674 11.7335L20.0007 14.0002L20.2674 14.2669C20.3987 14.3982 20.5029 14.5541 20.5739 14.7257C20.645 14.8973 20.6816 15.0812 20.6816 15.2669C20.6816 15.4526 20.645 15.6365 20.5739 15.8081C20.5029 15.9797 20.3987 16.1356 20.2674 16.2669C20.136 16.3982 19.9801 16.5024 19.8086 16.5734C19.637 16.6445 19.4531 16.6811 19.2674 16.6811C19.0817 16.6811 18.8978 16.6445 18.7262 16.5734C18.5546 16.5024 18.3987 16.3982 18.2674 16.2669L15.734 13.7335C15.6027 13.6022 15.4985 13.4463 15.4275 13.2747C15.3564 13.1032 15.3198 12.9193 15.3198 12.7335C15.3198 12.5478 15.3564 12.3639 15.4275 12.1924C15.4985 12.0208 15.6027 11.8649 15.734 11.7335C15.8654 11.6022 16.0213 11.4981 16.1928 11.427C16.3644 11.3559 16.5483 11.3193 16.734 11.3193C16.9198 11.3193 17.1037 11.3559 17.2752 11.427C17.4468 11.4981 17.6027 11.6022 17.734 11.7335L18.0007 12.0002Z" stroke="#424CA8" stroke-width="1.5" stroke-linecap="round" stroke-linejoin="round"/>
</g>
<defs>
<clipPath id="clip0_1724_33192">
<rect width="16" height="16" fill="white" transform="translate(8 8)"/>
</clipPath>
</defs>
</svg>
