<svg width="24" height="24" viewBox="0 0 24 24" fill="none" xmlns="http://www.w3.org/2000/svg">
<path d="M11.4961 22C17.0189 22 21.4961 17.5228 21.4961 12C21.4961 6.47715 17.0189 2 11.4961 2C5.97325 2 1.49609 6.47715 1.49609 12C1.49609 17.5228 5.97325 22 11.4961 22Z" fill="url(#paint0_linear_1901_38814)"/>
<path fill-rule="evenodd" clip-rule="evenodd" d="M11.9961 2.75C9.54284 2.75 7.19007 3.72455 5.45536 5.45926C3.72064 7.19397 2.74609 9.54675 2.74609 12C2.74609 14.4533 3.72064 16.806 5.45536 18.5407C7.19007 20.2754 9.54284 21.25 11.9961 21.25C14.4493 21.25 16.8021 20.2754 18.5368 18.5407C20.2715 16.806 21.2461 14.4533 21.2461 12C21.2461 9.54675 20.2715 7.19397 18.5368 5.45926C16.8021 3.72455 14.4493 2.75 11.9961 2.75ZM1.24609 12C1.24609 6.063 6.05909 1.25 11.9961 1.25C17.9331 1.25 22.7461 6.063 22.7461 12C22.7461 17.937 17.9331 22.75 11.9961 22.75C6.05909 22.75 1.24609 17.937 1.24609 12ZM11.9961 7.75C11.3751 7.75 10.8711 8.254 10.8711 8.875C10.8711 9.07391 10.7921 9.26468 10.6514 9.40533C10.5108 9.54598 10.32 9.625 10.1211 9.625C9.92218 9.625 9.73142 9.54598 9.59076 9.40533C9.45011 9.26468 9.37109 9.07391 9.37109 8.875C9.37106 8.41531 9.49175 7.96368 9.72107 7.56528C9.9504 7.16688 10.2803 6.83569 10.6778 6.60484C11.0754 6.37399 11.5265 6.25157 11.9862 6.24984C12.4459 6.24811 12.898 6.36713 13.2972 6.59498C13.6965 6.82283 14.0289 7.15153 14.2612 7.54819C14.4935 7.94485 14.6176 8.39556 14.621 8.85524C14.6244 9.31491 14.5071 9.76743 14.2807 10.1675C14.0544 10.5676 13.7269 10.9012 13.3311 11.135C13.1573 11.2323 13.0003 11.3569 12.8661 11.504C12.7641 11.624 12.7461 11.704 12.7461 11.75V13C12.7461 13.1989 12.6671 13.3897 12.5264 13.5303C12.3858 13.671 12.195 13.75 11.9961 13.75C11.7972 13.75 11.6064 13.671 11.4658 13.5303C11.3251 13.3897 11.2461 13.1989 11.2461 13V11.75C11.2461 11.244 11.4681 10.834 11.7231 10.533C11.9751 10.236 12.2891 10.009 12.5681 9.844C12.7814 9.71911 12.9476 9.52737 13.041 9.29847C13.1344 9.06957 13.1497 8.81628 13.0845 8.57781C13.0194 8.33934 12.8774 8.129 12.6807 7.97935C12.4839 7.8297 12.2433 7.74909 11.9961 7.75ZM11.9961 17C12.2613 17 12.5157 16.8946 12.7032 16.7071C12.8907 16.5196 12.9961 16.2652 12.9961 16C12.9961 15.7348 12.8907 15.4804 12.7032 15.2929C12.5157 15.1054 12.2613 15 11.9961 15C11.7309 15 11.4765 15.1054 11.289 15.2929C11.1015 15.4804 10.9961 15.7348 10.9961 16C10.9961 16.2652 11.1015 16.5196 11.289 16.7071C11.4765 16.8946 11.7309 17 11.9961 17Z" fill="white"/>
<defs>
<linearGradient id="paint0_linear_1901_38814" x1="11.4961" y1="2" x2="11.4961" y2="22" gradientUnits="userSpaceOnUse">
<stop stop-color="#9F54F7"/>
<stop offset="1" stop-color="#8523F5"/>
</linearGradient>
</defs>
</svg>
