<svg width="80" height="80" viewBox="0 0 80 80" fill="none" xmlns="http://www.w3.org/2000/svg">
<g clip-path="url(#clip0_1724_34189)">
<g clip-path="url(#clip1_1724_34189)">
<path d="M72.3524 39.9999C72.3524 22.1319 57.8675 7.64697 39.9994 7.64697C22.1314 7.64697 7.64648 22.1319 7.64648 39.9999C7.64648 57.868 22.1314 72.3529 39.9994 72.3529C57.8675 72.3529 72.3524 57.868 72.3524 39.9999Z" fill="white"/>
<path d="M72.3524 39.9999C72.3524 22.1319 57.8675 7.64697 39.9994 7.64697C22.1314 7.64697 7.64648 22.1319 7.64648 39.9999C7.64648 57.868 22.1314 72.3529 39.9994 72.3529C57.8675 72.3529 72.3524 57.868 72.3524 39.9999Z" stroke="#E7E9EF" stroke-width="1.17647"/>
<mask id="mask0_1724_34189" style="mask-type:luminance" maskUnits="userSpaceOnUse" x="12" y="12" width="56" height="56">
<path d="M67.0591 40.0002C67.0591 25.0561 54.9444 12.9414 40.0002 12.9414C25.0561 12.9414 12.9414 25.0561 12.9414 40.0002C12.9414 54.9444 25.0561 67.0591 40.0002 67.0591C54.9444 67.0591 67.0591 54.9444 67.0591 40.0002Z" fill="white"/>
</mask>
<g mask="url(#mask0_1724_34189)">
<path d="M67.061 40.0002C67.061 25.0561 54.9464 12.9414 40.0022 12.9414C25.058 12.9414 12.9434 25.0561 12.9434 40.0002C12.9434 54.9444 25.058 67.0591 40.0022 67.0591C54.9464 67.0591 67.061 54.9444 67.061 40.0002Z" fill="url(#paint0_linear_1724_34189)"/>
<path d="M-17.1596 -4.70605H-24.7031V2.84336M-17.1596 -4.70605V2.84336M-17.1596 -4.70605H-9.61607M-24.7031 2.84336H-17.1596M-24.7031 2.84336V10.3916M-17.1596 2.84336H-9.61607M-17.1596 2.84336V10.3916M-9.61607 -4.70605V2.84336M-9.61607 -4.70605H-2.07371M-9.61607 2.84336H-2.07371M-9.61607 2.84336V10.3916M-17.1596 10.3916H-24.7031M-17.1596 10.3916H-9.61607M-17.1596 10.3916V17.941M-24.7031 10.3916V17.941M-2.07371 -4.70605V2.84336M-2.07371 -4.70605H5.46982M-2.07371 2.84336H5.46982M-2.07371 2.84336V10.3916M-9.61607 10.3916H-2.07371M-9.61607 10.3916V17.941M5.46982 -4.70605V2.84336M5.46982 -4.70605H13.0133M5.46982 2.84336H13.0133M5.46982 2.84336V10.3916M-2.07371 10.3916H5.46982M-2.07371 10.3916V17.941M5.46982 10.3916H13.0133M5.46982 10.3916V17.941M13.0145 2.84336V-4.70605H20.5581M13.0145 2.84336H20.5581M13.0145 2.84336V10.3916M20.5557 2.84336V-4.70605H28.0981M20.5557 2.84336H28.0981M20.5557 2.84336V10.3916M28.0981 -4.70605V2.84336M28.0981 -4.70605H35.6428M28.0981 2.84336H35.6428M28.0981 2.84336L28.0992 10.3916M20.5557 10.3916H13.0133M20.5557 10.3916H28.0992M20.5557 10.3916L20.5569 17.941M35.6428 -4.70605V2.84336M35.6428 -4.70605H43.1863M35.6428 2.84336H43.1863M35.6428 2.84336V10.3916M28.0992 10.3916H35.6428M28.0992 10.3916V17.941M43.1863 -4.70605V2.84336M43.1863 -4.70605H50.7298M43.1863 2.84336H50.7298M43.1863 2.84336V10.3916M35.6428 10.3916H43.1863M35.6428 10.3916V17.941M50.7298 -4.70605V2.84336M50.7298 -4.70605H58.2722M50.7298 2.84336H58.2722M50.7298 2.84336V10.3916M43.1863 10.3916H50.7298M43.1863 10.3916V17.941M58.2722 -4.70605V2.84336M58.2722 -4.70605H65.8157M58.2722 2.84336H65.8169L65.8157 -4.70605M58.2722 2.84336L58.2733 10.3916M50.7298 10.3916H58.2733M50.7298 10.3916V17.941M65.8157 -4.70605H73.3592M58.2733 10.3916H65.8145M58.2733 10.3916L58.2722 17.941M73.3592 -4.70605L73.3581 2.84336M73.3592 -4.70605H80.9028M73.3581 2.84336H65.8145V10.3916M73.3581 2.84336H80.9028M73.3581 2.84336L73.3592 10.3916M65.8145 10.3916H73.3592M65.8145 10.3916L65.8157 17.941M80.9028 -4.70605V2.84336M80.9028 -4.70605H88.4463M80.9028 2.84336H88.4463M80.9028 2.84336V10.3916M73.3592 10.3916H80.9028M73.3592 10.3916V17.941M88.4463 -4.70605V2.84336M88.4463 -4.70605H95.9886M88.4463 2.84336H95.9886M88.4463 2.84336V10.3916M80.9028 10.3916H88.4463M80.9028 10.3916V17.941M95.9886 -4.70605V2.84336M95.9886 -4.70605H103.532V2.84336M95.9886 2.84336H103.532M95.9886 2.84336V10.3916M88.4463 10.3916H95.9886M88.4463 10.3916V17.941M103.532 2.84336V10.3916M95.9886 10.3916H103.532M95.9886 10.3916V17.941M103.532 10.3916V17.941M-17.1596 17.941H-24.7031M-17.1596 17.941H-9.61607M-17.1596 17.941V25.4904M-24.7031 17.941V25.4904M-9.61607 17.941H-2.07371M-9.61607 17.941V25.4904M-2.07371 17.941H5.46982M-2.07371 17.941V25.4904M13.0133 10.3916V17.941M5.46982 17.941H13.0133M5.46982 17.941V25.4904M13.0133 17.941H20.5569M13.0133 17.941V25.4904M20.5569 17.941H28.0992M20.5569 17.941V25.4904M28.0992 17.941H35.6428M28.0992 17.941V25.4904M35.6428 17.941H43.1863M35.6428 17.941V25.4904M43.1863 17.941H50.7298M43.1863 17.941V25.4904M50.7298 17.941H58.2722M50.7298 17.941V25.4904M58.2722 17.941H65.8157M58.2722 17.941V25.4904M65.8157 17.941H73.3592M65.8157 17.941V25.4904M73.3592 17.941H80.9028M73.3592 17.941V25.4904M80.9028 17.941H88.4463M80.9028 17.941V25.4904M88.4463 17.941H95.9886M88.4463 17.941V25.4904M95.9886 17.941H103.532M95.9886 17.941V25.4904M103.532 17.941V25.4904M-17.1596 25.4904H-24.7031M-17.1596 25.4904H-9.61607M-17.1596 25.4904V33.0387M-24.7031 25.4904V33.0387M-9.61607 25.4904H-2.07371M-9.61607 25.4904V33.0387M-2.07371 25.4904H5.46982M-2.07371 25.4904V33.0387M5.46982 25.4904H13.0133M5.46982 25.4904V33.0387M13.0133 25.4904H20.5569M13.0133 25.4904V33.0387M20.5569 25.4904H28.0992M20.5569 25.4904V33.0387M28.0992 25.4904H35.6428M28.0992 25.4904V33.0387M35.6428 25.4904H43.1863M35.6428 25.4904V33.0387M43.1863 25.4904H50.7298M43.1863 25.4904V33.0387M50.7298 25.4904H58.2722M50.7298 25.4904V33.0387M58.2722 25.4904H65.8157M58.2722 25.4904V33.0387M65.8157 25.4904H73.3592M65.8157 25.4904V33.0387M73.3592 25.4904H80.9028M73.3592 25.4904V33.0387M80.9028 25.4904H88.4463M80.9028 25.4904V33.0387M88.4463 25.4904H95.9886M88.4463 25.4904V33.0387M95.9886 25.4904H103.532M95.9886 25.4904V33.0387M103.532 25.4904V33.0387M-17.1596 33.0387H-24.7031M-17.1596 33.0387H-9.61607M-17.1596 33.0387V40.5881M-24.7031 33.0387V40.5881M-9.61607 33.0387H-2.07371M-9.61607 33.0387V40.5881M-2.07371 33.0387H5.46982M-2.07371 33.0387V40.5881M5.46982 33.0387H13.0133M5.46982 33.0387V40.5881M13.0133 33.0387H20.5569M13.0133 33.0387V40.5881H5.46982M20.5569 33.0387H28.0992M20.5569 33.0387V40.5881M28.0992 33.0387H35.6428M28.0992 33.0387V40.5881M35.6428 33.0387H43.1863M35.6428 33.0387V40.5881M43.1863 33.0387H50.7298M43.1863 33.0387V40.5881M50.7298 33.0387H58.2722M50.7298 33.0387V40.5881M58.2722 33.0387H65.8157M58.2722 33.0387V40.5881M65.8157 33.0387H73.3592M65.8157 33.0387V40.5881M73.3592 33.0387H80.9028M73.3592 33.0387V40.5881M80.9028 33.0387H88.4463M80.9028 33.0387V40.5881M88.4463 33.0387H95.9886M88.4463 33.0387V40.5881M95.9886 33.0387H103.532M95.9886 33.0387V40.5881M103.532 33.0387V40.5881M-17.1596 40.5881H-24.7031M-17.1596 40.5881H-9.61607M-17.1596 40.5881V48.1375M-24.7031 40.5881V48.1375M-9.61607 40.5881H-2.07371M-9.61607 40.5881V48.1375M-2.07371 40.5881H5.46982M-2.07371 40.5881V48.1375M5.46982 40.5881V48.1375M20.5569 40.5881H13.0145V48.1375M20.5569 40.5881H28.0992M20.5569 40.5881L20.5557 48.1375M28.0992 40.5881H35.6428M28.0992 40.5881L28.0981 48.1375M35.6428 40.5881H43.1863M35.6428 40.5881L35.6416 48.1375M43.1863 40.5881H50.7298M43.1863 40.5881L43.1851 48.1375M50.7298 40.5881H58.2722M50.7298 40.5881L50.7286 48.1375M58.2722 40.5881H65.8157M58.2722 40.5881L58.271 48.1375M65.8157 40.5881H73.3592M65.8157 40.5881L65.8145 48.1375M73.3592 40.5881H80.9028M73.3592 40.5881L73.3581 48.1375M80.9028 40.5881H88.4463M80.9028 40.5881L80.9016 48.1375M88.4463 40.5881H95.9886M88.4463 40.5881L88.4451 48.1375M95.9886 40.5881H103.532M95.9886 40.5881V48.1375M103.532 40.5881V48.1375M-17.1596 48.1375H-24.7031M-17.1596 48.1375H-9.61607M-17.1596 48.1375V55.6857M-24.7031 48.1375V55.6857M-9.61607 48.1375H-2.07371M-9.61607 48.1375V55.6857M-2.07371 48.1375H5.46982M-2.07371 48.1375V55.6857M5.46982 48.1375H13.0133M5.46982 48.1375V55.6857M20.5557 48.1375H13.0133M20.5557 48.1375H28.0981M20.5557 48.1375L20.5569 55.6857M28.0981 48.1375H35.6416M28.0981 48.1375L28.0992 55.6857M35.6416 48.1375H43.1851M35.6416 48.1375L35.6428 55.6857M43.1851 48.1375H50.7286M43.1851 48.1375L43.1863 55.6857M50.7286 48.1375H58.271M50.7286 48.1375L50.7298 55.6857M58.271 48.1375H65.8145M58.271 48.1375L58.2722 55.6857M65.8145 48.1375H73.3581M65.8145 48.1375L65.8157 55.6857M73.3581 48.1375H80.9016M73.3581 48.1375L73.3592 55.6857M80.9016 48.1375H88.4451M80.9016 48.1375L80.9028 55.6857M88.4451 48.1375H95.9886M88.4451 48.1375L88.4463 55.6857M95.9886 48.1375H103.532M95.9886 48.1375V55.6857M103.532 48.1375V55.6857M-17.1596 55.6857H-24.7031M-17.1596 55.6857H-9.61607M-17.1596 55.6857V63.2351M-24.7031 55.6857V63.2351M-9.61607 55.6857H-2.07371M-9.61607 55.6857V63.2351M-2.07371 55.6857H5.46982M-2.07371 55.6857V63.2351M13.0133 48.1375V55.6857M5.46982 55.6857H13.0133M5.46982 55.6857V63.2351M13.0133 55.6857H20.5569M13.0133 55.6857V63.2351M20.5569 55.6857H28.0992M20.5569 55.6857V63.2351M28.0992 55.6857H35.6428M28.0992 55.6857V63.2351M35.6428 55.6857H43.1863M35.6428 55.6857V63.2351M43.1863 55.6857H50.7298M43.1863 55.6857V63.2351M50.7298 55.6857H58.2722M50.7298 55.6857V63.2351M58.2722 55.6857H65.8157M58.2722 55.6857V63.2351M65.8157 55.6857H73.3592M65.8157 55.6857V63.2351M73.3592 55.6857H80.9028M73.3592 55.6857V63.2351M80.9028 55.6857H88.4463M80.9028 55.6857V63.2351M88.4463 55.6857H95.9886M88.4463 55.6857V63.2351M95.9886 55.6857H103.532M95.9886 55.6857V63.2351M103.532 55.6857V63.2351M-17.1596 63.2351H-24.7031M-17.1596 63.2351H-9.61607M-17.1596 63.2351V70.7845M-24.7031 63.2351V70.7845M-9.61607 63.2351H-2.07371M-9.61607 63.2351V70.7845M-2.07371 63.2351H5.46982M-2.07371 63.2351V70.7845M5.46982 63.2351H13.0133M5.46982 63.2351V70.7845M13.0133 63.2351H20.5569M13.0133 63.2351V70.7845M20.5569 63.2351H28.0992M20.5569 63.2351V70.7845M28.0992 63.2351H35.6428M28.0992 63.2351V70.7845M35.6428 63.2351H43.1863M35.6428 63.2351V70.7845M43.1863 63.2351H50.7298M43.1863 63.2351V70.7845M50.7298 63.2351H58.2722M50.7298 63.2351V70.7845M58.2722 63.2351H65.8157M58.2722 63.2351V70.7845M65.8157 63.2351H73.3592M65.8157 63.2351V70.7845M73.3592 63.2351H80.9028M73.3592 63.2351V70.7845M80.9028 63.2351H88.4463M80.9028 63.2351V70.7845M88.4463 63.2351H95.9886M88.4463 63.2351V70.7845M95.9886 63.2351H103.532M95.9886 63.2351V70.7845M103.532 63.2351V70.7845M-17.1596 70.7845H-24.7031M-17.1596 70.7845H-9.61607M-17.1596 70.7845V78.3328M-24.7031 70.7845V78.3328M-9.61607 70.7845H-2.07371M-9.61607 70.7845V78.3328M-2.07371 70.7845H5.46982M-2.07371 70.7845V78.3328M5.46982 70.7845H13.0133M5.46982 70.7845V78.3328M13.0133 70.7845H20.5569M13.0133 70.7845V78.3328M20.5569 70.7845H28.0992M20.5569 70.7845V78.3328M28.0992 70.7845H35.6428M28.0992 70.7845V78.3328M35.6428 70.7845H43.1863M35.6428 70.7845V78.3328M43.1863 70.7845H50.7298M43.1863 70.7845V78.3328M50.7298 70.7845H58.2722M50.7298 70.7845V78.3328M58.2722 70.7845H65.8157M58.2722 70.7845V78.3328M65.8157 70.7845H73.3592M65.8157 70.7845V78.3328M73.3592 70.7845H80.9028M73.3592 70.7845V78.3328M80.9028 70.7845H88.4463M80.9028 70.7845V78.3328M88.4463 70.7845H95.9886M88.4463 70.7845V78.3328M95.9886 70.7845H103.532M95.9886 70.7845V78.3328M103.532 70.7845V78.3328M-17.1596 78.3328H-24.7031M-17.1596 78.3328H-9.61607M-17.1596 78.3328V85.8822M-24.7031 78.3328V85.8822H-17.1596M-9.61607 78.3328H-2.07371M-9.61607 78.3328V85.8822M-2.07371 78.3328H5.46982M-2.07371 78.3328V85.8822M5.46982 78.3328H13.0133M5.46982 78.3328V85.8822M13.0133 78.3328H20.5569M13.0133 78.3328V85.8822M20.5569 78.3328H28.0992M20.5569 78.3328V85.8822M28.0992 78.3328H35.6428M28.0992 78.3328V85.8822M35.6428 78.3328H43.1863M35.6428 78.3328V85.8822M43.1863 78.3328H50.7298M43.1863 78.3328V85.8822M50.7298 78.3328H58.2722M50.7298 78.3328V85.8822M58.2722 78.3328H65.8157M58.2722 78.3328V85.8822M65.8157 78.3328H73.3592M65.8157 78.3328V85.8822M73.3592 78.3328H80.9028M73.3592 78.3328V85.8822M80.9028 78.3328H88.4463M80.9028 78.3328V85.8822M88.4463 78.3328H95.9886M88.4463 78.3328V85.8822M95.9886 78.3328H103.532M95.9886 78.3328V85.8822M103.532 78.3328V85.8822H95.9886M-17.1596 85.8822H-9.61607M-9.61607 85.8822H-2.07371M-2.07371 85.8822H5.46982M5.46982 85.8822H13.0133M13.0133 85.8822H20.5569M20.5569 85.8822H28.0992M28.0992 85.8822H35.6428M35.6428 85.8822H43.1863M43.1863 85.8822H50.7298M50.7298 85.8822H58.2722M58.2722 85.8822H65.8157M65.8157 85.8822H73.3592M73.3592 85.8822H80.9028M80.9028 85.8822H88.4463M88.4463 85.8822H95.9886" stroke="url(#paint1_radial_1724_34189)" stroke-opacity="0.5" stroke-width="0.941177"/>
</g>
<path d="M80 40C80 29.3913 75.7857 19.2172 68.2843 11.7157C60.7828 4.21427 50.6087 0 40 0C29.3913 0 19.2172 4.21427 11.7157 11.7157C4.21427 19.2172 0 29.3913 0 40H4.46118C4.46118 30.5745 8.20543 21.5351 14.8703 14.8703C21.5351 8.20543 30.5745 4.46118 40 4.46118C49.4255 4.46118 58.4649 8.20543 65.1297 14.8703C71.7946 21.5351 75.5388 30.5745 75.5388 40H80Z" fill="url(#paint2_linear_1724_34189)"/>
</g>
</g>
<g clip-path="url(#clip2_1724_34189)">
<path opacity="0.7" d="M48.7622 25.7536C48.8936 25.7891 49.025 25.8264 49.1582 25.8584C49.9831 26.0476 50.7212 26.5068 51.2555 27.1631C51.7897 27.8194 52.0895 28.6352 52.1072 29.4812C52.1196 30.0528 52.1072 30.6261 52.1072 31.2119H27.998C27.998 31.0965 27.998 30.9793 27.998 30.8569C28.0282 30.1469 27.9767 29.4369 28.1081 28.7535C28.4117 27.1808 29.6546 26.0536 31.2347 25.7962C31.2887 25.784 31.3415 25.7674 31.3928 25.7466L48.7622 25.7536Z" fill="#424CA8"/>
<path opacity="0.7" d="M56.5044 48.7955C56.3961 49.2535 56.3269 49.7203 56.1742 50.1641C55.6945 51.5612 54.7177 52.7333 53.4297 53.4571C52.1417 54.1809 50.6324 54.4059 49.1892 54.0893C47.746 53.7727 46.4696 52.9366 45.6031 51.7401C44.7365 50.5436 44.3403 49.0703 44.4899 47.6007C44.6395 46.1311 45.3244 44.7678 46.4143 43.7704C47.5041 42.7729 48.9228 42.2109 50.4002 42.1914C51.8776 42.172 53.3107 42.6963 54.4264 43.6647C55.5422 44.633 56.2629 45.9778 56.4512 47.443C56.4618 47.5246 56.4867 47.6027 56.5044 47.6826V48.7955ZM50.482 48.2257V47.8956C50.482 46.8021 50.482 45.7093 50.482 44.6171C50.4891 44.5243 50.4891 44.4312 50.482 44.3384C50.4694 44.1986 50.4032 44.0691 50.2974 43.9768C50.1915 43.8845 50.0542 43.8367 49.9139 43.8432C49.7729 43.8464 49.639 43.9054 49.5415 44.0073C49.444 44.1091 49.3908 44.2454 49.3937 44.3863C49.3937 45.8489 49.3937 47.3122 49.3937 48.776C49.3893 48.8442 49.399 48.9126 49.422 48.977C49.4451 49.0413 49.4812 49.1002 49.5279 49.1501C49.5747 49.2 49.6311 49.2398 49.6938 49.267C49.7566 49.2943 49.8242 49.3084 49.8926 49.3085C50.8395 49.3192 51.7864 49.3192 52.7333 49.3085C52.8013 49.3069 52.8683 49.2918 52.9305 49.2641C52.9926 49.2363 53.0486 49.1966 53.0951 49.147C53.1417 49.0975 53.178 49.0391 53.2019 48.9754C53.2257 48.9117 53.2366 48.844 53.234 48.776C53.2366 48.7061 53.2252 48.6365 53.2003 48.5711C53.1755 48.5058 53.1378 48.4461 53.0894 48.3956C53.0411 48.3451 52.9831 48.3048 52.9189 48.2772C52.8546 48.2495 52.7855 48.235 52.7156 48.2346C52.0853 48.2204 51.455 48.2346 50.8265 48.2346L50.482 48.2257Z" fill="#424CA8"/>
<path d="M28.0105 32.3374H52.0877V41.2783C49.966 40.8434 48.0041 41.2001 46.2553 42.4888C44.5064 43.7775 43.5796 45.5188 43.3506 47.6754H43.0878C39.3593 47.6754 35.6308 47.6754 31.9023 47.6754C30.0008 47.6754 28.4686 46.4471 28.0779 44.6224C28.0248 44.3775 27.998 44.1275 27.998 43.8769C27.998 40.1032 27.998 36.3289 27.998 32.554C27.9998 32.49 28.0052 32.4262 28.0105 32.3374ZM33.7719 40.554H31.9645C31.4797 40.554 31.288 40.744 31.2862 41.225C31.2862 42.4214 31.2862 43.6177 31.2862 44.8141C31.2862 45.2756 31.4833 45.4815 31.9431 45.4851C33.1493 45.4851 34.3548 45.4851 35.5598 45.4851C36.0232 45.4851 36.2238 45.2792 36.2256 44.8194C36.2256 43.6148 36.2256 42.4095 36.2256 41.2037C36.2256 40.7457 36.0196 40.554 35.5527 40.554H33.7719ZM42.2516 43.0107C42.2516 42.4089 42.2516 41.8054 42.2516 41.2037C42.2516 40.7546 42.0545 40.5558 41.6088 40.5558C40.3944 40.5558 39.18 40.5558 37.9656 40.5558C37.5217 40.5558 37.3211 40.751 37.3193 41.2019C37.3193 42.416 37.3193 43.6302 37.3193 44.8443C37.3193 45.2738 37.5235 45.4833 37.9496 45.4851C39.1723 45.4922 40.3962 45.4922 41.6213 45.4851C42.0598 45.4851 42.2498 45.2685 42.2516 44.8177C42.2516 44.2159 42.2516 43.6124 42.2516 43.0107ZM33.7293 39.45H35.5758C36.025 39.45 36.2327 39.2494 36.2345 38.8109C36.2345 37.5968 36.2345 36.3827 36.2345 35.1686C36.2345 34.7337 36.0356 34.5278 35.6077 34.526C34.3756 34.526 33.1428 34.526 31.9094 34.526C31.4957 34.526 31.2987 34.7355 31.2969 35.1491C31.2969 36.3715 31.2969 37.5945 31.2969 38.818C31.2969 39.2423 31.5046 39.4446 31.9343 39.4482C32.5273 39.4535 33.1292 39.45 33.7328 39.45H33.7293ZM42.2516 36.9826C42.2516 36.3703 42.2516 35.7597 42.2516 35.1473C42.2516 34.7355 42.0527 34.5296 41.6372 34.526C40.4051 34.526 39.1723 34.526 37.9389 34.526C37.5235 34.526 37.3211 34.7284 37.3193 35.1437C37.3193 36.3756 37.3193 37.608 37.3193 38.8411C37.3193 39.2511 37.5341 39.4482 37.9496 39.4482C39.1723 39.4482 40.3956 39.4482 41.6195 39.4482C42.0456 39.4482 42.2498 39.2405 42.2516 38.8163C42.2533 38.2057 42.2516 37.5933 42.2516 36.9826Z" fill="#2D3370"/>
<path d="M32.4102 41.6636H35.1V44.3794H32.4102V41.6636Z" fill="#424CA8"/>
<path d="M41.1343 41.6636V44.3794H38.4355V41.6636H41.1343Z" fill="#424CA8"/>
<path d="M32.4043 35.6284H35.1012V38.3389H32.4043V35.6284Z" fill="#424CA8"/>
<path d="M41.1355 38.3441H38.4297V35.6318H41.1355V38.3441Z" fill="#424CA8"/>
</g>
<defs>
<linearGradient id="paint0_linear_1724_34189" x1="40.0022" y1="-1.26448" x2="40.0022" y2="67.0591" gradientUnits="userSpaceOnUse">
<stop stop-color="#2D3370" stop-opacity="0.2"/>
<stop offset="1" stop-color="#2D3370" stop-opacity="0"/>
</linearGradient>
<radialGradient id="paint1_radial_1724_34189" cx="0" cy="0" r="1" gradientUnits="userSpaceOnUse" gradientTransform="translate(39.4145 -247.059) rotate(90) scale(332.845 499.638)">
<stop stop-color="#059669"/>
<stop offset="0.943" stop-color="#059669" stop-opacity="0"/>
</radialGradient>
<linearGradient id="paint2_linear_1724_34189" x1="40" y1="-351.765" x2="40" y2="40" gradientUnits="userSpaceOnUse">
<stop stop-color="#2D3370"/>
<stop offset="1" stop-color="#2D3370" stop-opacity="0"/>
</linearGradient>
<clipPath id="clip0_1724_34189">
<rect width="80" height="80" fill="white"/>
</clipPath>
<clipPath id="clip1_1724_34189">
<rect width="80" height="80" fill="white"/>
</clipPath>
<clipPath id="clip2_1724_34189">
<rect width="35.2941" height="35.2941" fill="white" transform="translate(22.3516 22.3516)"/>
</clipPath>
</defs>
</svg>
