<svg width="81" height="80" viewBox="0 0 81 80" fill="none" xmlns="http://www.w3.org/2000/svg">
<g clip-path="url(#clip0_1724_34201)">
<g clip-path="url(#clip1_1724_34201)">
<g clip-path="url(#clip2_1724_34201)">
<path d="M73.0203 39.9999C73.0203 22.1319 58.5354 7.64697 40.6674 7.64697C22.7994 7.64697 8.31445 22.1319 8.31445 39.9999C8.31445 57.868 22.7994 72.3529 40.6674 72.3529C58.5354 72.3529 73.0203 57.868 73.0203 39.9999Z" fill="white"/>
<path d="M73.0203 39.9999C73.0203 22.1319 58.5354 7.64697 40.6674 7.64697C22.7994 7.64697 8.31445 22.1319 8.31445 39.9999C8.31445 57.868 22.7994 72.3529 40.6674 72.3529C58.5354 72.3529 73.0203 57.868 73.0203 39.9999Z" stroke="#E7E9EF" stroke-width="1.17647"/>
<mask id="mask0_1724_34201" style="mask-type:luminance" maskUnits="userSpaceOnUse" x="13" y="12" width="55" height="56">
<path d="M67.727 40.0002C67.727 25.0561 55.6124 12.9414 40.6682 12.9414C25.724 12.9414 13.6094 25.0561 13.6094 40.0002C13.6094 54.9444 25.724 67.0591 40.6682 67.0591C55.6124 67.0591 67.727 54.9444 67.727 40.0002Z" fill="white"/>
</mask>
<g mask="url(#mask0_1724_34201)">
<path d="M67.729 40.0002C67.729 25.0561 55.6143 12.9414 40.6702 12.9414C25.726 12.9414 13.6113 25.0561 13.6113 40.0002C13.6113 54.9444 25.726 67.0591 40.6702 67.0591C55.6143 67.0591 67.729 54.9444 67.729 40.0002Z" fill="url(#paint0_linear_1724_34201)"/>
<path d="M-16.4916 -4.70605H-24.0352V2.84336M-16.4916 -4.70605V2.84336M-16.4916 -4.70605H-8.9481M-24.0352 2.84336H-16.4916M-24.0352 2.84336V10.3916M-16.4916 2.84336H-8.9481M-16.4916 2.84336V10.3916M-8.9481 -4.70605V2.84336M-8.9481 -4.70605H-1.40574M-8.9481 2.84336H-1.40574M-8.9481 2.84336V10.3916M-16.4916 10.3916H-24.0352M-16.4916 10.3916H-8.9481M-16.4916 10.3916V17.941M-24.0352 10.3916V17.941M-1.40574 -4.70605V2.84336M-1.40574 -4.70605H6.13779M-1.40574 2.84336H6.13779M-1.40574 2.84336V10.3916M-8.9481 10.3916H-1.40574M-8.9481 10.3916V17.941M6.13779 -4.70605V2.84336M6.13779 -4.70605H13.6813M6.13779 2.84336H13.6813M6.13779 2.84336V10.3916M-1.40574 10.3916H6.13779M-1.40574 10.3916V17.941M6.13779 10.3916H13.6813M6.13779 10.3916V17.941M13.6825 2.84336V-4.70605H21.226M13.6825 2.84336H21.226M13.6825 2.84336V10.3916M21.2237 2.84336V-4.70605H28.766M21.2237 2.84336H28.766M21.2237 2.84336V10.3916M28.766 -4.70605V2.84336M28.766 -4.70605H36.3107M28.766 2.84336H36.3107M28.766 2.84336L28.7672 10.3916M21.2237 10.3916H13.6813M21.2237 10.3916H28.7672M21.2237 10.3916L21.2248 17.941M36.3107 -4.70605V2.84336M36.3107 -4.70605H43.8543M36.3107 2.84336H43.8543M36.3107 2.84336V10.3916M28.7672 10.3916H36.3107M28.7672 10.3916V17.941M43.8543 -4.70605V2.84336M43.8543 -4.70605H51.3978M43.8543 2.84336H51.3978M43.8543 2.84336V10.3916M36.3107 10.3916H43.8543M36.3107 10.3916V17.941M51.3978 -4.70605V2.84336M51.3978 -4.70605H58.9401M51.3978 2.84336H58.9401M51.3978 2.84336V10.3916M43.8543 10.3916H51.3978M43.8543 10.3916V17.941M58.9401 -4.70605V2.84336M58.9401 -4.70605H66.4837M58.9401 2.84336H66.4848L66.4837 -4.70605M58.9401 2.84336L58.9413 10.3916M51.3978 10.3916H58.9413M51.3978 10.3916V17.941M66.4837 -4.70605H74.0272M58.9413 10.3916H66.4825M58.9413 10.3916L58.9401 17.941M74.0272 -4.70605L74.026 2.84336M74.0272 -4.70605H81.5707M74.026 2.84336H66.4825V10.3916M74.026 2.84336H81.5707M74.026 2.84336L74.0272 10.3916M66.4825 10.3916H74.0272M66.4825 10.3916L66.4837 17.941M81.5707 -4.70605V2.84336M81.5707 -4.70605H89.1143M81.5707 2.84336H89.1143M81.5707 2.84336V10.3916M74.0272 10.3916H81.5707M74.0272 10.3916V17.941M89.1143 -4.70605V2.84336M89.1143 -4.70605H96.6566M89.1143 2.84336H96.6566M89.1143 2.84336V10.3916M81.5707 10.3916H89.1143M81.5707 10.3916V17.941M96.6566 -4.70605V2.84336M96.6566 -4.70605H104.2V2.84336M96.6566 2.84336H104.2M96.6566 2.84336V10.3916M89.1143 10.3916H96.6566M89.1143 10.3916V17.941M104.2 2.84336V10.3916M96.6566 10.3916H104.2M96.6566 10.3916V17.941M104.2 10.3916V17.941M-16.4916 17.941H-24.0352M-16.4916 17.941H-8.9481M-16.4916 17.941V25.4904M-24.0352 17.941V25.4904M-8.9481 17.941H-1.40574M-8.9481 17.941V25.4904M-1.40574 17.941H6.13779M-1.40574 17.941V25.4904M13.6813 10.3916V17.941M6.13779 17.941H13.6813M6.13779 17.941V25.4904M13.6813 17.941H21.2248M13.6813 17.941V25.4904M21.2248 17.941H28.7672M21.2248 17.941V25.4904M28.7672 17.941H36.3107M28.7672 17.941V25.4904M36.3107 17.941H43.8543M36.3107 17.941V25.4904M43.8543 17.941H51.3978M43.8543 17.941V25.4904M51.3978 17.941H58.9401M51.3978 17.941V25.4904M58.9401 17.941H66.4837M58.9401 17.941V25.4904M66.4837 17.941H74.0272M66.4837 17.941V25.4904M74.0272 17.941H81.5707M74.0272 17.941V25.4904M81.5707 17.941H89.1143M81.5707 17.941V25.4904M89.1143 17.941H96.6566M89.1143 17.941V25.4904M96.6566 17.941H104.2M96.6566 17.941V25.4904M104.2 17.941V25.4904M-16.4916 25.4904H-24.0352M-16.4916 25.4904H-8.9481M-16.4916 25.4904V33.0387M-24.0352 25.4904V33.0387M-8.9481 25.4904H-1.40574M-8.9481 25.4904V33.0387M-1.40574 25.4904H6.13779M-1.40574 25.4904V33.0387M6.13779 25.4904H13.6813M6.13779 25.4904V33.0387M13.6813 25.4904H21.2248M13.6813 25.4904V33.0387M21.2248 25.4904H28.7672M21.2248 25.4904V33.0387M28.7672 25.4904H36.3107M28.7672 25.4904V33.0387M36.3107 25.4904H43.8543M36.3107 25.4904V33.0387M43.8543 25.4904H51.3978M43.8543 25.4904V33.0387M51.3978 25.4904H58.9401M51.3978 25.4904V33.0387M58.9401 25.4904H66.4837M58.9401 25.4904V33.0387M66.4837 25.4904H74.0272M66.4837 25.4904V33.0387M74.0272 25.4904H81.5707M74.0272 25.4904V33.0387M81.5707 25.4904H89.1143M81.5707 25.4904V33.0387M89.1143 25.4904H96.6566M89.1143 25.4904V33.0387M96.6566 25.4904H104.2M96.6566 25.4904V33.0387M104.2 25.4904V33.0387M-16.4916 33.0387H-24.0352M-16.4916 33.0387H-8.9481M-16.4916 33.0387V40.5881M-24.0352 33.0387V40.5881M-8.9481 33.0387H-1.40574M-8.9481 33.0387V40.5881M-1.40574 33.0387H6.13779M-1.40574 33.0387V40.5881M6.13779 33.0387H13.6813M6.13779 33.0387V40.5881M13.6813 33.0387H21.2248M13.6813 33.0387V40.5881H6.13779M21.2248 33.0387H28.7672M21.2248 33.0387V40.5881M28.7672 33.0387H36.3107M28.7672 33.0387V40.5881M36.3107 33.0387H43.8543M36.3107 33.0387V40.5881M43.8543 33.0387H51.3978M43.8543 33.0387V40.5881M51.3978 33.0387H58.9401M51.3978 33.0387V40.5881M58.9401 33.0387H66.4837M58.9401 33.0387V40.5881M66.4837 33.0387H74.0272M66.4837 33.0387V40.5881M74.0272 33.0387H81.5707M74.0272 33.0387V40.5881M81.5707 33.0387H89.1143M81.5707 33.0387V40.5881M89.1143 33.0387H96.6566M89.1143 33.0387V40.5881M96.6566 33.0387H104.2M96.6566 33.0387V40.5881M104.2 33.0387V40.5881M-16.4916 40.5881H-24.0352M-16.4916 40.5881H-8.9481M-16.4916 40.5881V48.1375M-24.0352 40.5881V48.1375M-8.9481 40.5881H-1.40574M-8.9481 40.5881V48.1375M-1.40574 40.5881H6.13779M-1.40574 40.5881V48.1375M6.13779 40.5881V48.1375M21.2248 40.5881H13.6825V48.1375M21.2248 40.5881H28.7672M21.2248 40.5881L21.2237 48.1375M28.7672 40.5881H36.3107M28.7672 40.5881L28.766 48.1375M36.3107 40.5881H43.8543M36.3107 40.5881L36.3096 48.1375M43.8543 40.5881H51.3978M43.8543 40.5881L43.8531 48.1375M51.3978 40.5881H58.9401M51.3978 40.5881L51.3966 48.1375M58.9401 40.5881H66.4837M58.9401 40.5881L58.939 48.1375M66.4837 40.5881H74.0272M66.4837 40.5881L66.4825 48.1375M74.0272 40.5881H81.5707M74.0272 40.5881L74.026 48.1375M81.5707 40.5881H89.1143M81.5707 40.5881L81.5696 48.1375M89.1143 40.5881H96.6566M89.1143 40.5881L89.1131 48.1375M96.6566 40.5881H104.2M96.6566 40.5881V48.1375M104.2 40.5881V48.1375M-16.4916 48.1375H-24.0352M-16.4916 48.1375H-8.9481M-16.4916 48.1375V55.6857M-24.0352 48.1375V55.6857M-8.9481 48.1375H-1.40574M-8.9481 48.1375V55.6857M-1.40574 48.1375H6.13779M-1.40574 48.1375V55.6857M6.13779 48.1375H13.6813M6.13779 48.1375V55.6857M21.2237 48.1375H13.6813M21.2237 48.1375H28.766M21.2237 48.1375L21.2248 55.6857M28.766 48.1375H36.3096M28.766 48.1375L28.7672 55.6857M36.3096 48.1375H43.8531M36.3096 48.1375L36.3107 55.6857M43.8531 48.1375H51.3966M43.8531 48.1375L43.8543 55.6857M51.3966 48.1375H58.939M51.3966 48.1375L51.3978 55.6857M58.939 48.1375H66.4825M58.939 48.1375L58.9401 55.6857M66.4825 48.1375H74.026M66.4825 48.1375L66.4837 55.6857M74.026 48.1375H81.5696M74.026 48.1375L74.0272 55.6857M81.5696 48.1375H89.1131M81.5696 48.1375L81.5707 55.6857M89.1131 48.1375H96.6566M89.1131 48.1375L89.1143 55.6857M96.6566 48.1375H104.2M96.6566 48.1375V55.6857M104.2 48.1375V55.6857M-16.4916 55.6857H-24.0352M-16.4916 55.6857H-8.9481M-16.4916 55.6857V63.2351M-24.0352 55.6857V63.2351M-8.9481 55.6857H-1.40574M-8.9481 55.6857V63.2351M-1.40574 55.6857H6.13779M-1.40574 55.6857V63.2351M13.6813 48.1375V55.6857M6.13779 55.6857H13.6813M6.13779 55.6857V63.2351M13.6813 55.6857H21.2248M13.6813 55.6857V63.2351M21.2248 55.6857H28.7672M21.2248 55.6857V63.2351M28.7672 55.6857H36.3107M28.7672 55.6857V63.2351M36.3107 55.6857H43.8543M36.3107 55.6857V63.2351M43.8543 55.6857H51.3978M43.8543 55.6857V63.2351M51.3978 55.6857H58.9401M51.3978 55.6857V63.2351M58.9401 55.6857H66.4837M58.9401 55.6857V63.2351M66.4837 55.6857H74.0272M66.4837 55.6857V63.2351M74.0272 55.6857H81.5707M74.0272 55.6857V63.2351M81.5707 55.6857H89.1143M81.5707 55.6857V63.2351M89.1143 55.6857H96.6566M89.1143 55.6857V63.2351M96.6566 55.6857H104.2M96.6566 55.6857V63.2351M104.2 55.6857V63.2351M-16.4916 63.2351H-24.0352M-16.4916 63.2351H-8.9481M-16.4916 63.2351V70.7845M-24.0352 63.2351V70.7845M-8.9481 63.2351H-1.40574M-8.9481 63.2351V70.7845M-1.40574 63.2351H6.13779M-1.40574 63.2351V70.7845M6.13779 63.2351H13.6813M6.13779 63.2351V70.7845M13.6813 63.2351H21.2248M13.6813 63.2351V70.7845M21.2248 63.2351H28.7672M21.2248 63.2351V70.7845M28.7672 63.2351H36.3107M28.7672 63.2351V70.7845M36.3107 63.2351H43.8543M36.3107 63.2351V70.7845M43.8543 63.2351H51.3978M43.8543 63.2351V70.7845M51.3978 63.2351H58.9401M51.3978 63.2351V70.7845M58.9401 63.2351H66.4837M58.9401 63.2351V70.7845M66.4837 63.2351H74.0272M66.4837 63.2351V70.7845M74.0272 63.2351H81.5707M74.0272 63.2351V70.7845M81.5707 63.2351H89.1143M81.5707 63.2351V70.7845M89.1143 63.2351H96.6566M89.1143 63.2351V70.7845M96.6566 63.2351H104.2M96.6566 63.2351V70.7845M104.2 63.2351V70.7845M-16.4916 70.7845H-24.0352M-16.4916 70.7845H-8.9481M-16.4916 70.7845V78.3328M-24.0352 70.7845V78.3328M-8.9481 70.7845H-1.40574M-8.9481 70.7845V78.3328M-1.40574 70.7845H6.13779M-1.40574 70.7845V78.3328M6.13779 70.7845H13.6813M6.13779 70.7845V78.3328M13.6813 70.7845H21.2248M13.6813 70.7845V78.3328M21.2248 70.7845H28.7672M21.2248 70.7845V78.3328M28.7672 70.7845H36.3107M28.7672 70.7845V78.3328M36.3107 70.7845H43.8543M36.3107 70.7845V78.3328M43.8543 70.7845H51.3978M43.8543 70.7845V78.3328M51.3978 70.7845H58.9401M51.3978 70.7845V78.3328M58.9401 70.7845H66.4837M58.9401 70.7845V78.3328M66.4837 70.7845H74.0272M66.4837 70.7845V78.3328M74.0272 70.7845H81.5707M74.0272 70.7845V78.3328M81.5707 70.7845H89.1143M81.5707 70.7845V78.3328M89.1143 70.7845H96.6566M89.1143 70.7845V78.3328M96.6566 70.7845H104.2M96.6566 70.7845V78.3328M104.2 70.7845V78.3328M-16.4916 78.3328H-24.0352M-16.4916 78.3328H-8.9481M-16.4916 78.3328V85.8822M-24.0352 78.3328V85.8822H-16.4916M-8.9481 78.3328H-1.40574M-8.9481 78.3328V85.8822M-1.40574 78.3328H6.13779M-1.40574 78.3328V85.8822M6.13779 78.3328H13.6813M6.13779 78.3328V85.8822M13.6813 78.3328H21.2248M13.6813 78.3328V85.8822M21.2248 78.3328H28.7672M21.2248 78.3328V85.8822M28.7672 78.3328H36.3107M28.7672 78.3328V85.8822M36.3107 78.3328H43.8543M36.3107 78.3328V85.8822M43.8543 78.3328H51.3978M43.8543 78.3328V85.8822M51.3978 78.3328H58.9401M51.3978 78.3328V85.8822M58.9401 78.3328H66.4837M58.9401 78.3328V85.8822M66.4837 78.3328H74.0272M66.4837 78.3328V85.8822M74.0272 78.3328H81.5707M74.0272 78.3328V85.8822M81.5707 78.3328H89.1143M81.5707 78.3328V85.8822M89.1143 78.3328H96.6566M89.1143 78.3328V85.8822M96.6566 78.3328H104.2M96.6566 78.3328V85.8822M104.2 78.3328V85.8822H96.6566M-16.4916 85.8822H-8.9481M-8.9481 85.8822H-1.40574M-1.40574 85.8822H6.13779M6.13779 85.8822H13.6813M13.6813 85.8822H21.2248M21.2248 85.8822H28.7672M28.7672 85.8822H36.3107M36.3107 85.8822H43.8543M43.8543 85.8822H51.3978M51.3978 85.8822H58.9401M58.9401 85.8822H66.4837M66.4837 85.8822H74.0272M74.0272 85.8822H81.5707M81.5707 85.8822H89.1143M89.1143 85.8822H96.6566" stroke="url(#paint1_radial_1724_34201)" stroke-opacity="0.5" stroke-width="0.941177"/>
</g>
<path d="M80.668 40C80.668 29.3913 76.4537 19.2172 68.9522 11.7157C61.4508 4.21427 51.2766 0 40.668 0C30.0593 0 19.8852 4.21427 12.3837 11.7157C4.88224 19.2172 0.667969 29.3913 0.667969 40H5.12915C5.12915 30.5745 8.8734 21.5351 15.5382 14.8703C22.203 8.20543 31.2425 4.46118 40.668 4.46118C50.0935 4.46118 59.1329 8.20543 65.7977 14.8703C72.4625 21.5351 76.2068 30.5745 76.2068 40H80.668Z" fill="url(#paint2_linear_1724_34201)"/>
</g>
</g>
</g>
<g clip-path="url(#clip3_1724_34201)">
<path opacity="0.7" d="M49.4302 25.7536C49.5616 25.7891 49.693 25.8264 49.8261 25.8584C50.6511 26.0476 51.3892 26.5068 51.9235 27.1631C52.4577 27.8194 52.7575 28.6352 52.7752 29.4812C52.7876 30.0528 52.7752 30.6261 52.7752 31.2119H28.666C28.666 31.0965 28.666 30.9793 28.666 30.8569C28.6962 30.1469 28.6447 29.4369 28.7761 28.7535C29.0797 27.1808 30.3225 26.0536 31.9027 25.7962C31.9566 25.784 32.0095 25.7674 32.0607 25.7466L49.4302 25.7536Z" fill="#424CA8"/>
<path opacity="0.7" d="M57.1724 48.7955C57.0641 49.2535 56.9949 49.7203 56.8422 50.1641C56.3625 51.5612 55.3857 52.7333 54.0977 53.4571C52.8096 54.1809 51.3004 54.4059 49.8571 54.0893C48.4139 53.7727 47.1376 52.9366 46.271 51.7401C45.4045 50.5436 45.0083 49.0703 45.1579 47.6007C45.3075 46.1311 45.9924 44.7678 47.0822 43.7704C48.1721 42.7729 49.5908 42.2109 51.0682 42.1914C52.5456 42.172 53.9786 42.6963 55.0944 43.6647C56.2102 44.633 56.9308 45.9778 57.1191 47.443C57.1298 47.5246 57.1547 47.6027 57.1724 47.6826V48.7955ZM51.15 48.2257V47.8956C51.15 46.8021 51.15 45.7093 51.15 44.6171C51.1571 44.5243 51.1571 44.4312 51.15 44.3384C51.1373 44.1986 51.0712 44.0691 50.9654 43.9768C50.8595 43.8845 50.7221 43.8367 50.5818 43.8432C50.4409 43.8464 50.307 43.9054 50.2094 44.0073C50.1119 44.1091 50.0588 44.2454 50.0616 44.3863C50.0616 45.8489 50.0616 47.3122 50.0616 48.776C50.0573 48.8442 50.0669 48.9126 50.09 48.977C50.1131 49.0413 50.1491 49.1002 50.1959 49.1501C50.2426 49.2 50.2991 49.2398 50.3618 49.267C50.4245 49.2943 50.4922 49.3084 50.5605 49.3085C51.5075 49.3192 52.4544 49.3192 53.4013 49.3085C53.4693 49.3069 53.5363 49.2918 53.5984 49.2641C53.6605 49.2363 53.7165 49.1966 53.7631 49.147C53.8097 49.0975 53.846 49.0391 53.8698 48.9754C53.8937 48.9117 53.9046 48.844 53.902 48.776C53.9046 48.7061 53.8932 48.6365 53.8683 48.5711C53.8435 48.5058 53.8058 48.4461 53.7574 48.3956C53.7091 48.3451 53.651 48.3048 53.5868 48.2772C53.5226 48.2495 53.4535 48.235 53.3835 48.2346C52.7533 48.2204 52.123 48.2346 51.4944 48.2346L51.15 48.2257Z" fill="#424CA8"/>
<path d="M28.6784 32.3374H52.7557V41.2783C50.634 40.8434 48.6721 41.2001 46.9232 42.4888C45.1744 43.7775 44.2476 45.5188 44.0185 47.6754H43.7558C40.0273 47.6754 36.2988 47.6754 32.5703 47.6754C30.6688 47.6754 29.1365 46.4471 28.7459 44.6224C28.6927 44.3775 28.666 44.1275 28.666 43.8769C28.666 40.1032 28.666 36.3289 28.666 32.554C28.6678 32.49 28.6731 32.4262 28.6784 32.3374ZM34.4399 40.554H32.6324C32.1477 40.554 31.956 40.744 31.9542 41.225C31.9542 42.4214 31.9542 43.6177 31.9542 44.8141C31.9542 45.2756 32.1513 45.4815 32.6111 45.4851C33.8173 45.4851 35.0228 45.4851 36.2278 45.4851C36.6912 45.4851 36.8918 45.2792 36.8936 44.8194C36.8936 43.6148 36.8936 42.4095 36.8936 41.2037C36.8936 40.7457 36.6876 40.554 36.2207 40.554H34.4399ZM42.9195 43.0107C42.9195 42.4089 42.9195 41.8054 42.9195 41.2037C42.9195 40.7546 42.7224 40.5558 42.2768 40.5558C41.0624 40.5558 39.848 40.5558 38.6335 40.5558C38.1897 40.5558 37.989 40.751 37.9873 41.2019C37.9873 42.416 37.9873 43.6302 37.9873 44.8443C37.9873 45.2738 38.1914 45.4833 38.6176 45.4851C39.8403 45.4922 41.0642 45.4922 42.2892 45.4851C42.7278 45.4851 42.9177 45.2685 42.9195 44.8177C42.9195 44.2159 42.9195 43.6124 42.9195 43.0107ZM34.3972 39.45H36.2437C36.6929 39.45 36.9007 39.2494 36.9024 38.8109C36.9024 37.5968 36.9024 36.3827 36.9024 35.1686C36.9024 34.7337 36.7036 34.5278 36.2757 34.526C35.0435 34.526 33.8107 34.526 32.5774 34.526C32.1637 34.526 31.9666 34.7355 31.9649 35.1491C31.9649 36.3715 31.9649 37.5945 31.9649 38.818C31.9649 39.2423 32.1726 39.4446 32.6022 39.4482C33.1953 39.4535 33.7971 39.45 34.4008 39.45H34.3972ZM42.9195 36.9826C42.9195 36.3703 42.9195 35.7597 42.9195 35.1473C42.9195 34.7355 42.7207 34.5296 42.3052 34.526C41.073 34.526 39.8403 34.526 38.6069 34.526C38.1914 34.526 37.989 34.7284 37.9873 35.1437C37.9873 36.3756 37.9873 37.608 37.9873 38.8411C37.9873 39.2511 38.2021 39.4482 38.6176 39.4482C39.8403 39.4482 41.0636 39.4482 42.2875 39.4482C42.7136 39.4482 42.9177 39.2405 42.9195 38.8163C42.9213 38.2057 42.9195 37.5933 42.9195 36.9826Z" fill="#2D3370"/>
<path d="M33.0781 41.6636H35.768V44.3794H33.0781V41.6636Z" fill="#424CA8"/>
<path d="M41.8022 41.6636V44.3794H39.1035V41.6636H41.8022Z" fill="#424CA8"/>
<path d="M33.0723 35.6284H35.7692V38.3389H33.0723V35.6284Z" fill="#424CA8"/>
<path d="M41.8035 38.3441H39.0977V35.6318H41.8035V38.3441Z" fill="#424CA8"/>
</g>
<defs>
<linearGradient id="paint0_linear_1724_34201" x1="40.6702" y1="-1.26448" x2="40.6702" y2="67.0591" gradientUnits="userSpaceOnUse">
<stop stop-color="#2D3370" stop-opacity="0.2"/>
<stop offset="1" stop-color="#2D3370" stop-opacity="0"/>
</linearGradient>
<radialGradient id="paint1_radial_1724_34201" cx="0" cy="0" r="1" gradientUnits="userSpaceOnUse" gradientTransform="translate(40.0825 -247.059) rotate(90) scale(332.845 499.638)">
<stop stop-color="#059669"/>
<stop offset="0.943" stop-color="#059669" stop-opacity="0"/>
</radialGradient>
<linearGradient id="paint2_linear_1724_34201" x1="40.668" y1="-351.765" x2="40.668" y2="40" gradientUnits="userSpaceOnUse">
<stop stop-color="#2D3370"/>
<stop offset="1" stop-color="#2D3370" stop-opacity="0"/>
</linearGradient>
<clipPath id="clip0_1724_34201">
<rect width="80" height="80" fill="white" transform="translate(0.667969)"/>
</clipPath>
<clipPath id="clip1_1724_34201">
<rect width="80" height="80" fill="white" transform="translate(0.667969)"/>
</clipPath>
<clipPath id="clip2_1724_34201">
<rect width="80" height="80" fill="white" transform="translate(0.667969)"/>
</clipPath>
<clipPath id="clip3_1724_34201">
<rect width="35.2941" height="35.2941" fill="white" transform="translate(23.0195 22.3516)"/>
</clipPath>
</defs>
</svg>
