<svg width="65" height="64" viewBox="0 0 65 64" fill="none" xmlns="http://www.w3.org/2000/svg">
<circle cx="32.6641" cy="32" r="32" fill="url(#paint0_linear_1901_39264)"/>
<path d="M20.269 30.1001L25.869 24.5001C26.1801 24.189 26.5468 23.9668 26.969 23.8334C27.3912 23.7001 27.8246 23.6779 28.269 23.7668L30.0023 24.1334C28.8023 25.5557 27.8579 26.8446 27.169 28.0001C26.4801 29.1557 25.8135 30.5557 25.169 32.2001L20.269 30.1001ZM27.1023 33.1334C27.6135 31.5334 28.3081 30.0223 29.1863 28.6001C30.0646 27.1779 31.1255 25.8446 32.369 24.6001C34.3246 22.6446 36.5579 21.1837 39.069 20.2174C41.5801 19.2512 43.9246 18.9566 46.1023 19.3334C46.4801 21.5112 46.1912 23.8557 45.2357 26.3668C44.2801 28.8779 42.8246 31.1112 40.869 33.0668C39.6468 34.289 38.3135 35.3503 36.869 36.2508C35.4246 37.1512 33.9023 37.8566 32.3023 38.3668L27.1023 33.1334ZM36.3023 29.1334C36.8135 29.6446 37.4415 29.9001 38.1863 29.9001C38.9312 29.9001 39.5588 29.6446 40.069 29.1334C40.5792 28.6223 40.8348 27.9948 40.8357 27.2508C40.8366 26.5068 40.581 25.8788 40.069 25.3668C39.557 24.8548 38.9295 24.5992 38.1863 24.6001C37.4432 24.601 36.8152 24.8566 36.3023 25.3668C35.7895 25.877 35.5339 26.505 35.5357 27.2508C35.5375 27.9966 35.793 28.6241 36.3023 29.1334ZM35.369 45.1668L33.2357 40.2668C34.8801 39.6223 36.2859 38.9557 37.453 38.2668C38.6201 37.5779 39.9143 36.6334 41.3357 35.4334L41.669 37.1668C41.7579 37.6112 41.7357 38.0503 41.6023 38.4841C41.469 38.9179 41.2468 39.2899 40.9357 39.6001L35.369 45.1668ZM22.4023 37.4001C23.1801 36.6223 24.1246 36.2277 25.2357 36.2161C26.3468 36.2046 27.2912 36.5881 28.069 37.3668C28.8468 38.1454 29.2357 39.0899 29.2357 40.2001C29.2357 41.3103 28.8468 42.2548 28.069 43.0334C27.5135 43.589 26.5859 44.0668 25.2863 44.4668C23.9868 44.8668 22.1921 45.2223 19.9023 45.5334C20.2135 43.2446 20.569 41.4557 20.969 40.1668C21.369 38.8779 21.8468 37.9557 22.4023 37.4001Z" fill="white"/>
<defs>
<linearGradient id="paint0_linear_1901_39264" x1="9.33203" y1="-8.90641e-07" x2="58.832" y2="64" gradientUnits="userSpaceOnUse">
<stop stop-color="#424CA8"/>
<stop offset="1" stop-color="#1B2267"/>
</linearGradient>
</defs>
</svg>
