<svg width="81" height="80" viewBox="0 0 81 80" fill="none" xmlns="http://www.w3.org/2000/svg">
<g clip-path="url(#clip0_1724_34178)">
<g clip-path="url(#clip1_1724_34178)">
<g clip-path="url(#clip2_1724_34178)">
<path d="M72.6864 39.9999C72.6864 22.1319 58.2014 7.64697 40.3334 7.64697C22.4654 7.64697 7.98047 22.1319 7.98047 39.9999C7.98047 57.868 22.4654 72.3529 40.3334 72.3529C58.2014 72.3529 72.6864 57.868 72.6864 39.9999Z" fill="white"/>
<path d="M72.6864 39.9999C72.6864 22.1319 58.2014 7.64697 40.3334 7.64697C22.4654 7.64697 7.98047 22.1319 7.98047 39.9999C7.98047 57.868 22.4654 72.3529 40.3334 72.3529C58.2014 72.3529 72.6864 57.868 72.6864 39.9999Z" stroke="#E7E9EF" stroke-width="1.17647"/>
<mask id="mask0_1724_34178" style="mask-type:luminance" maskUnits="userSpaceOnUse" x="13" y="12" width="55" height="56">
<path d="M67.393 40.0002C67.393 25.0561 55.2784 12.9414 40.3342 12.9414C25.39 12.9414 13.2754 25.0561 13.2754 40.0002C13.2754 54.9444 25.39 67.0591 40.3342 67.0591C55.2784 67.0591 67.393 54.9444 67.393 40.0002Z" fill="white"/>
</mask>
<g mask="url(#mask0_1724_34178)">
<path d="M67.395 40.0002C67.395 25.0561 55.2803 12.9414 40.3362 12.9414C25.392 12.9414 13.2773 25.0561 13.2773 40.0002C13.2773 54.9444 25.392 67.0591 40.3362 67.0591C55.2803 67.0591 67.395 54.9444 67.395 40.0002Z" fill="url(#paint0_linear_1724_34178)"/>
<path d="M-16.8256 -4.70605H-24.3691V2.84336M-16.8256 -4.70605V2.84336M-16.8256 -4.70605H-9.28208M-24.3691 2.84336H-16.8256M-24.3691 2.84336V10.3916M-16.8256 2.84336H-9.28208M-16.8256 2.84336V10.3916M-9.28208 -4.70605V2.84336M-9.28208 -4.70605H-1.73973M-9.28208 2.84336H-1.73973M-9.28208 2.84336V10.3916M-16.8256 10.3916H-24.3691M-16.8256 10.3916H-9.28208M-16.8256 10.3916V17.941M-24.3691 10.3916V17.941M-1.73973 -4.70605V2.84336M-1.73973 -4.70605H5.8038M-1.73973 2.84336H5.8038M-1.73973 2.84336V10.3916M-9.28208 10.3916H-1.73973M-9.28208 10.3916V17.941M5.8038 -4.70605V2.84336M5.8038 -4.70605H13.3473M5.8038 2.84336H13.3473M5.8038 2.84336V10.3916M-1.73973 10.3916H5.8038M-1.73973 10.3916V17.941M5.8038 10.3916H13.3473M5.8038 10.3916V17.941M13.3485 2.84336V-4.70605H20.892M13.3485 2.84336H20.892M13.3485 2.84336V10.3916M20.8897 2.84336V-4.70605H28.432M20.8897 2.84336H28.432M20.8897 2.84336V10.3916M28.432 -4.70605V2.84336M28.432 -4.70605H35.9767M28.432 2.84336H35.9767M28.432 2.84336L28.4332 10.3916M20.8897 10.3916H13.3473M20.8897 10.3916H28.4332M20.8897 10.3916L20.8909 17.941M35.9767 -4.70605V2.84336M35.9767 -4.70605H43.5203M35.9767 2.84336H43.5203M35.9767 2.84336V10.3916M28.4332 10.3916H35.9767M28.4332 10.3916V17.941M43.5203 -4.70605V2.84336M43.5203 -4.70605H51.0638M43.5203 2.84336H51.0638M43.5203 2.84336V10.3916M35.9767 10.3916H43.5203M35.9767 10.3916V17.941M51.0638 -4.70605V2.84336M51.0638 -4.70605H58.6062M51.0638 2.84336H58.6062M51.0638 2.84336V10.3916M43.5203 10.3916H51.0638M43.5203 10.3916V17.941M58.6062 -4.70605V2.84336M58.6062 -4.70605H66.1497M58.6062 2.84336H66.1509L66.1497 -4.70605M58.6062 2.84336L58.6073 10.3916M51.0638 10.3916H58.6073M51.0638 10.3916V17.941M66.1497 -4.70605H73.6932M58.6073 10.3916H66.1485M58.6073 10.3916L58.6062 17.941M73.6932 -4.70605L73.692 2.84336M73.6932 -4.70605H81.2367M73.692 2.84336H66.1485V10.3916M73.692 2.84336H81.2367M73.692 2.84336L73.6932 10.3916M66.1485 10.3916H73.6932M66.1485 10.3916L66.1497 17.941M81.2367 -4.70605V2.84336M81.2367 -4.70605H88.7803M81.2367 2.84336H88.7803M81.2367 2.84336V10.3916M73.6932 10.3916H81.2367M73.6932 10.3916V17.941M88.7803 -4.70605V2.84336M88.7803 -4.70605H96.3226M88.7803 2.84336H96.3226M88.7803 2.84336V10.3916M81.2367 10.3916H88.7803M81.2367 10.3916V17.941M96.3226 -4.70605V2.84336M96.3226 -4.70605H103.866V2.84336M96.3226 2.84336H103.866M96.3226 2.84336V10.3916M88.7803 10.3916H96.3226M88.7803 10.3916V17.941M103.866 2.84336V10.3916M96.3226 10.3916H103.866M96.3226 10.3916V17.941M103.866 10.3916V17.941M-16.8256 17.941H-24.3691M-16.8256 17.941H-9.28208M-16.8256 17.941V25.4904M-24.3691 17.941V25.4904M-9.28208 17.941H-1.73973M-9.28208 17.941V25.4904M-1.73973 17.941H5.8038M-1.73973 17.941V25.4904M13.3473 10.3916V17.941M5.8038 17.941H13.3473M5.8038 17.941V25.4904M13.3473 17.941H20.8909M13.3473 17.941V25.4904M20.8909 17.941H28.4332M20.8909 17.941V25.4904M28.4332 17.941H35.9767M28.4332 17.941V25.4904M35.9767 17.941H43.5203M35.9767 17.941V25.4904M43.5203 17.941H51.0638M43.5203 17.941V25.4904M51.0638 17.941H58.6062M51.0638 17.941V25.4904M58.6062 17.941H66.1497M58.6062 17.941V25.4904M66.1497 17.941H73.6932M66.1497 17.941V25.4904M73.6932 17.941H81.2367M73.6932 17.941V25.4904M81.2367 17.941H88.7803M81.2367 17.941V25.4904M88.7803 17.941H96.3226M88.7803 17.941V25.4904M96.3226 17.941H103.866M96.3226 17.941V25.4904M103.866 17.941V25.4904M-16.8256 25.4904H-24.3691M-16.8256 25.4904H-9.28208M-16.8256 25.4904V33.0387M-24.3691 25.4904V33.0387M-9.28208 25.4904H-1.73973M-9.28208 25.4904V33.0387M-1.73973 25.4904H5.8038M-1.73973 25.4904V33.0387M5.8038 25.4904H13.3473M5.8038 25.4904V33.0387M13.3473 25.4904H20.8909M13.3473 25.4904V33.0387M20.8909 25.4904H28.4332M20.8909 25.4904V33.0387M28.4332 25.4904H35.9767M28.4332 25.4904V33.0387M35.9767 25.4904H43.5203M35.9767 25.4904V33.0387M43.5203 25.4904H51.0638M43.5203 25.4904V33.0387M51.0638 25.4904H58.6062M51.0638 25.4904V33.0387M58.6062 25.4904H66.1497M58.6062 25.4904V33.0387M66.1497 25.4904H73.6932M66.1497 25.4904V33.0387M73.6932 25.4904H81.2367M73.6932 25.4904V33.0387M81.2367 25.4904H88.7803M81.2367 25.4904V33.0387M88.7803 25.4904H96.3226M88.7803 25.4904V33.0387M96.3226 25.4904H103.866M96.3226 25.4904V33.0387M103.866 25.4904V33.0387M-16.8256 33.0387H-24.3691M-16.8256 33.0387H-9.28208M-16.8256 33.0387V40.5881M-24.3691 33.0387V40.5881M-9.28208 33.0387H-1.73973M-9.28208 33.0387V40.5881M-1.73973 33.0387H5.8038M-1.73973 33.0387V40.5881M5.8038 33.0387H13.3473M5.8038 33.0387V40.5881M13.3473 33.0387H20.8909M13.3473 33.0387V40.5881H5.8038M20.8909 33.0387H28.4332M20.8909 33.0387V40.5881M28.4332 33.0387H35.9767M28.4332 33.0387V40.5881M35.9767 33.0387H43.5203M35.9767 33.0387V40.5881M43.5203 33.0387H51.0638M43.5203 33.0387V40.5881M51.0638 33.0387H58.6062M51.0638 33.0387V40.5881M58.6062 33.0387H66.1497M58.6062 33.0387V40.5881M66.1497 33.0387H73.6932M66.1497 33.0387V40.5881M73.6932 33.0387H81.2367M73.6932 33.0387V40.5881M81.2367 33.0387H88.7803M81.2367 33.0387V40.5881M88.7803 33.0387H96.3226M88.7803 33.0387V40.5881M96.3226 33.0387H103.866M96.3226 33.0387V40.5881M103.866 33.0387V40.5881M-16.8256 40.5881H-24.3691M-16.8256 40.5881H-9.28208M-16.8256 40.5881V48.1375M-24.3691 40.5881V48.1375M-9.28208 40.5881H-1.73973M-9.28208 40.5881V48.1375M-1.73973 40.5881H5.8038M-1.73973 40.5881V48.1375M5.8038 40.5881V48.1375M20.8909 40.5881H13.3485V48.1375M20.8909 40.5881H28.4332M20.8909 40.5881L20.8897 48.1375M28.4332 40.5881H35.9767M28.4332 40.5881L28.432 48.1375M35.9767 40.5881H43.5203M35.9767 40.5881L35.9756 48.1375M43.5203 40.5881H51.0638M43.5203 40.5881L43.5191 48.1375M51.0638 40.5881H58.6062M51.0638 40.5881L51.0626 48.1375M58.6062 40.5881H66.1497M58.6062 40.5881L58.605 48.1375M66.1497 40.5881H73.6932M66.1497 40.5881L66.1485 48.1375M73.6932 40.5881H81.2367M73.6932 40.5881L73.692 48.1375M81.2367 40.5881H88.7803M81.2367 40.5881L81.2356 48.1375M88.7803 40.5881H96.3226M88.7803 40.5881L88.7791 48.1375M96.3226 40.5881H103.866M96.3226 40.5881V48.1375M103.866 40.5881V48.1375M-16.8256 48.1375H-24.3691M-16.8256 48.1375H-9.28208M-16.8256 48.1375V55.6857M-24.3691 48.1375V55.6857M-9.28208 48.1375H-1.73973M-9.28208 48.1375V55.6857M-1.73973 48.1375H5.8038M-1.73973 48.1375V55.6857M5.8038 48.1375H13.3473M5.8038 48.1375V55.6857M20.8897 48.1375H13.3473M20.8897 48.1375H28.432M20.8897 48.1375L20.8909 55.6857M28.432 48.1375H35.9756M28.432 48.1375L28.4332 55.6857M35.9756 48.1375H43.5191M35.9756 48.1375L35.9767 55.6857M43.5191 48.1375H51.0626M43.5191 48.1375L43.5203 55.6857M51.0626 48.1375H58.605M51.0626 48.1375L51.0638 55.6857M58.605 48.1375H66.1485M58.605 48.1375L58.6062 55.6857M66.1485 48.1375H73.692M66.1485 48.1375L66.1497 55.6857M73.692 48.1375H81.2356M73.692 48.1375L73.6932 55.6857M81.2356 48.1375H88.7791M81.2356 48.1375L81.2367 55.6857M88.7791 48.1375H96.3226M88.7791 48.1375L88.7803 55.6857M96.3226 48.1375H103.866M96.3226 48.1375V55.6857M103.866 48.1375V55.6857M-16.8256 55.6857H-24.3691M-16.8256 55.6857H-9.28208M-16.8256 55.6857V63.2351M-24.3691 55.6857V63.2351M-9.28208 55.6857H-1.73973M-9.28208 55.6857V63.2351M-1.73973 55.6857H5.8038M-1.73973 55.6857V63.2351M13.3473 48.1375V55.6857M5.8038 55.6857H13.3473M5.8038 55.6857V63.2351M13.3473 55.6857H20.8909M13.3473 55.6857V63.2351M20.8909 55.6857H28.4332M20.8909 55.6857V63.2351M28.4332 55.6857H35.9767M28.4332 55.6857V63.2351M35.9767 55.6857H43.5203M35.9767 55.6857V63.2351M43.5203 55.6857H51.0638M43.5203 55.6857V63.2351M51.0638 55.6857H58.6062M51.0638 55.6857V63.2351M58.6062 55.6857H66.1497M58.6062 55.6857V63.2351M66.1497 55.6857H73.6932M66.1497 55.6857V63.2351M73.6932 55.6857H81.2367M73.6932 55.6857V63.2351M81.2367 55.6857H88.7803M81.2367 55.6857V63.2351M88.7803 55.6857H96.3226M88.7803 55.6857V63.2351M96.3226 55.6857H103.866M96.3226 55.6857V63.2351M103.866 55.6857V63.2351M-16.8256 63.2351H-24.3691M-16.8256 63.2351H-9.28208M-16.8256 63.2351V70.7845M-24.3691 63.2351V70.7845M-9.28208 63.2351H-1.73973M-9.28208 63.2351V70.7845M-1.73973 63.2351H5.8038M-1.73973 63.2351V70.7845M5.8038 63.2351H13.3473M5.8038 63.2351V70.7845M13.3473 63.2351H20.8909M13.3473 63.2351V70.7845M20.8909 63.2351H28.4332M20.8909 63.2351V70.7845M28.4332 63.2351H35.9767M28.4332 63.2351V70.7845M35.9767 63.2351H43.5203M35.9767 63.2351V70.7845M43.5203 63.2351H51.0638M43.5203 63.2351V70.7845M51.0638 63.2351H58.6062M51.0638 63.2351V70.7845M58.6062 63.2351H66.1497M58.6062 63.2351V70.7845M66.1497 63.2351H73.6932M66.1497 63.2351V70.7845M73.6932 63.2351H81.2367M73.6932 63.2351V70.7845M81.2367 63.2351H88.7803M81.2367 63.2351V70.7845M88.7803 63.2351H96.3226M88.7803 63.2351V70.7845M96.3226 63.2351H103.866M96.3226 63.2351V70.7845M103.866 63.2351V70.7845M-16.8256 70.7845H-24.3691M-16.8256 70.7845H-9.28208M-16.8256 70.7845V78.3328M-24.3691 70.7845V78.3328M-9.28208 70.7845H-1.73973M-9.28208 70.7845V78.3328M-1.73973 70.7845H5.8038M-1.73973 70.7845V78.3328M5.8038 70.7845H13.3473M5.8038 70.7845V78.3328M13.3473 70.7845H20.8909M13.3473 70.7845V78.3328M20.8909 70.7845H28.4332M20.8909 70.7845V78.3328M28.4332 70.7845H35.9767M28.4332 70.7845V78.3328M35.9767 70.7845H43.5203M35.9767 70.7845V78.3328M43.5203 70.7845H51.0638M43.5203 70.7845V78.3328M51.0638 70.7845H58.6062M51.0638 70.7845V78.3328M58.6062 70.7845H66.1497M58.6062 70.7845V78.3328M66.1497 70.7845H73.6932M66.1497 70.7845V78.3328M73.6932 70.7845H81.2367M73.6932 70.7845V78.3328M81.2367 70.7845H88.7803M81.2367 70.7845V78.3328M88.7803 70.7845H96.3226M88.7803 70.7845V78.3328M96.3226 70.7845H103.866M96.3226 70.7845V78.3328M103.866 70.7845V78.3328M-16.8256 78.3328H-24.3691M-16.8256 78.3328H-9.28208M-16.8256 78.3328V85.8822M-24.3691 78.3328V85.8822H-16.8256M-9.28208 78.3328H-1.73973M-9.28208 78.3328V85.8822M-1.73973 78.3328H5.8038M-1.73973 78.3328V85.8822M5.8038 78.3328H13.3473M5.8038 78.3328V85.8822M13.3473 78.3328H20.8909M13.3473 78.3328V85.8822M20.8909 78.3328H28.4332M20.8909 78.3328V85.8822M28.4332 78.3328H35.9767M28.4332 78.3328V85.8822M35.9767 78.3328H43.5203M35.9767 78.3328V85.8822M43.5203 78.3328H51.0638M43.5203 78.3328V85.8822M51.0638 78.3328H58.6062M51.0638 78.3328V85.8822M58.6062 78.3328H66.1497M58.6062 78.3328V85.8822M66.1497 78.3328H73.6932M66.1497 78.3328V85.8822M73.6932 78.3328H81.2367M73.6932 78.3328V85.8822M81.2367 78.3328H88.7803M81.2367 78.3328V85.8822M88.7803 78.3328H96.3226M88.7803 78.3328V85.8822M96.3226 78.3328H103.866M96.3226 78.3328V85.8822M103.866 78.3328V85.8822H96.3226M-16.8256 85.8822H-9.28208M-9.28208 85.8822H-1.73973M-1.73973 85.8822H5.8038M5.8038 85.8822H13.3473M13.3473 85.8822H20.8909M20.8909 85.8822H28.4332M28.4332 85.8822H35.9767M35.9767 85.8822H43.5203M43.5203 85.8822H51.0638M51.0638 85.8822H58.6062M58.6062 85.8822H66.1497M66.1497 85.8822H73.6932M73.6932 85.8822H81.2367M81.2367 85.8822H88.7803M88.7803 85.8822H96.3226" stroke="url(#paint1_radial_1724_34178)" stroke-opacity="0.5" stroke-width="0.941177"/>
</g>
<path d="M80.334 40C80.334 29.3913 76.1197 19.2172 68.6183 11.7157C61.1168 4.21427 50.9426 0 40.334 0C29.7253 0 19.5512 4.21427 12.0497 11.7157C4.54826 19.2172 0.333984 29.3913 0.333984 40H4.79516C4.79516 30.5745 8.53942 21.5351 15.2042 14.8703C21.8691 8.20543 30.9085 4.46118 40.334 4.46118C49.7595 4.46118 58.7989 8.20543 65.4637 14.8703C72.1286 21.5351 75.8728 30.5745 75.8728 40H80.334Z" fill="url(#paint2_linear_1724_34178)"/>
</g>
</g>
</g>
<g clip-path="url(#clip3_1724_34178)">
<path d="M44.6202 28.0175V28.3599C44.6202 29.8708 44.6202 31.3813 44.6202 32.8912C44.6202 34.2491 45.5598 35.1152 47.028 35.1197C48.6644 35.1197 50.3002 35.1197 51.9354 35.1197H52.3296V35.4443C52.3296 40.717 52.3296 45.9893 52.3296 51.2615C52.3296 52.401 51.6482 53.2345 50.5324 53.4558C50.335 53.4889 50.1344 53.5031 49.9338 53.4982C44.0342 53.4982 38.1322 53.4982 32.2278 53.4982C30.7797 53.4982 29.8328 52.6261 29.832 51.289C29.832 44.2652 29.832 37.2412 29.832 30.217C29.832 28.8866 30.7692 28.0034 32.1892 28.0019C36.2342 27.9974 40.2791 27.9974 44.3241 28.0019C44.4118 28.0011 44.4995 28.0108 44.6202 28.0175ZM41.111 40.457H34.9124C34.8014 40.457 34.6911 40.457 34.5809 40.4622C34.4431 40.4702 34.3088 40.506 34.1876 40.5671C34.0663 40.6281 33.961 40.713 33.879 40.8156C33.7971 40.9183 33.7404 41.0362 33.7131 41.1613C33.6858 41.2863 33.6885 41.4153 33.7209 41.5393C33.8344 41.9939 34.2181 42.236 34.8352 42.236C38.9987 42.236 43.1616 42.236 47.3241 42.236C47.4743 42.2392 47.6243 42.2248 47.7706 42.193C47.9062 42.1584 48.0318 42.0964 48.1383 42.0115C48.2449 41.9266 48.3296 41.8209 48.3865 41.702C48.4434 41.5832 48.471 41.4542 48.4673 41.3243C48.4636 41.1944 48.4287 41.0669 48.3651 40.9509C48.164 40.5914 47.8317 40.4547 47.3997 40.4555C45.304 40.4607 43.2075 40.457 41.111 40.457ZM41.111 44.0159H34.9124C34.8014 44.0159 34.6911 44.0159 34.5809 44.0211C34.443 44.029 34.3086 44.0646 34.1872 44.1255C34.0658 44.1864 33.9603 44.2712 33.8781 44.3737C33.796 44.4763 33.7391 44.5942 33.7115 44.7193C33.6839 44.8443 33.6863 44.9734 33.7185 45.0974C33.8319 45.5528 34.2157 45.795 34.8319 45.795C38.9954 45.795 43.1584 45.795 47.3208 45.795C47.471 45.7978 47.621 45.7834 47.7673 45.7519C47.903 45.7174 48.0287 45.6555 48.1353 45.5708C48.2419 45.486 48.3269 45.3804 48.384 45.2617C48.4411 45.143 48.4689 45.014 48.4655 44.8841C48.4621 44.7542 48.4275 44.6267 48.3643 44.5106C48.164 44.1511 47.8317 44.0129 47.3989 44.0144C45.3056 44.0226 43.2091 44.0166 41.1126 44.0166L41.111 44.0159ZM41.074 49.3546C43.141 49.3546 45.2074 49.3546 47.2734 49.3546C47.4336 49.3589 47.5937 49.3454 47.7505 49.3145C47.8918 49.2815 48.023 49.2188 48.1338 49.1314C48.2447 49.044 48.3323 48.9342 48.3898 48.8105C48.4473 48.6868 48.4731 48.5525 48.4653 48.4181C48.4576 48.2837 48.4164 48.1527 48.345 48.0354C48.1286 47.6818 47.7818 47.5733 47.3579 47.5733C43.1745 47.5793 38.9911 47.5805 34.8078 47.577C34.7169 47.577 34.6268 47.577 34.5367 47.5852C34.407 47.5982 34.2816 47.6358 34.1684 47.6956C34.0552 47.7554 33.9565 47.8362 33.8787 47.9329C33.8008 48.0295 33.7454 48.14 33.7159 48.2573C33.6864 48.3746 33.6835 48.4963 33.7073 48.6148C33.8046 49.0865 34.1899 49.3576 34.7829 49.3576C36.8815 49.3576 38.9791 49.3569 41.0756 49.3554L41.074 49.3546ZM41.0893 36.8981C40.4577 36.8981 39.8254 36.8929 39.1931 36.8981C38.613 36.904 38.1979 37.2695 38.1883 37.7642C38.1786 38.2589 38.5977 38.6667 39.1866 38.6719C40.4508 38.6823 41.7152 38.6823 42.9798 38.6719C43.5679 38.6667 43.9838 38.2634 43.9693 37.7575C43.9557 37.265 43.5365 36.904 42.9565 36.8981C42.3338 36.8914 41.7136 36.8988 41.0909 36.8988L41.0893 36.8981ZM36.572 37.8013C36.5749 37.5685 36.5029 37.34 36.3653 37.1448C36.2277 36.9497 36.0305 36.7965 35.7987 36.7047C35.5669 36.6129 35.3108 36.5866 35.0628 36.629C34.8148 36.6714 34.586 36.7807 34.4052 36.9431C34.2244 37.1055 34.0997 37.3137 34.0469 37.5414C33.9942 37.7692 34.0156 38.0062 34.1086 38.2227C34.2016 38.4392 34.3619 38.6254 34.5694 38.7579C34.7769 38.8903 35.0222 38.963 35.2744 38.9668C35.614 38.9714 35.9416 38.8513 36.1852 38.6329C36.4289 38.4144 36.5686 38.1156 36.5736 37.8021L36.572 37.8013Z" fill="#2D3370"/>
<path opacity="0.6" d="M46.6253 28.1538C46.8465 28.3061 47.0903 28.4361 47.2833 28.6129C48.7459 29.95 50.2012 31.2935 51.6493 32.6435C51.8424 32.8233 51.984 33.0498 52.194 33.312C52.0266 33.3262 51.9446 33.3388 51.8617 33.3395C50.2527 33.3395 48.6464 33.3395 47.0428 33.3395C46.6406 33.3395 46.5496 33.2556 46.5488 32.8812C46.5488 31.3985 46.5488 29.9156 46.5488 28.4324V28.2095L46.6253 28.1538Z" fill="#424CA8"/>
</g>
<defs>
<linearGradient id="paint0_linear_1724_34178" x1="40.3362" y1="-1.26448" x2="40.3362" y2="67.0591" gradientUnits="userSpaceOnUse">
<stop stop-color="#2D3370" stop-opacity="0.2"/>
<stop offset="1" stop-color="#2D3370" stop-opacity="0"/>
</linearGradient>
<radialGradient id="paint1_radial_1724_34178" cx="0" cy="0" r="1" gradientUnits="userSpaceOnUse" gradientTransform="translate(39.7485 -247.059) rotate(90) scale(332.845 499.638)">
<stop stop-color="#059669"/>
<stop offset="0.943" stop-color="#059669" stop-opacity="0"/>
</radialGradient>
<linearGradient id="paint2_linear_1724_34178" x1="40.334" y1="-351.765" x2="40.334" y2="40" gradientUnits="userSpaceOnUse">
<stop stop-color="#2D3370"/>
<stop offset="1" stop-color="#2D3370" stop-opacity="0"/>
</linearGradient>
<clipPath id="clip0_1724_34178">
<rect width="80" height="80" fill="white" transform="translate(0.333984)"/>
</clipPath>
<clipPath id="clip1_1724_34178">
<rect width="80" height="80" fill="white" transform="translate(0.333984)"/>
</clipPath>
<clipPath id="clip2_1724_34178">
<rect width="80" height="80" fill="white" transform="translate(0.333984)"/>
</clipPath>
<clipPath id="clip3_1724_34178">
<rect width="35.2941" height="35.2941" fill="white" transform="translate(22.6855 22.3516)"/>
</clipPath>
</defs>
</svg>
