<svg width="19" height="20" viewBox="0 0 19 20" fill="none" xmlns="http://www.w3.org/2000/svg">
<path opacity="0.7" d="M13.8411 0.504709C13.9287 0.528373 14.0163 0.553231 14.105 0.574528C14.6549 0.700656 15.147 1.00675 15.5031 1.44423C15.8592 1.88171 16.059 2.42553 16.0708 2.98945C16.0791 3.37045 16.0708 3.75262 16.0708 4.14308H0C0 4.06617 0 3.98808 0 3.90644C0.0201196 3.43316 -0.0142026 2.95989 0.0733768 2.50435C0.275756 1.45603 1.10421 0.70467 2.15753 0.533104C2.19348 0.524942 2.22871 0.513887 2.26286 0.5L13.8411 0.504709Z" fill="#424CA8"/>
<path opacity="0.7" d="M19 15.8644C18.9278 16.1697 18.8817 16.4809 18.7799 16.7767C18.4602 17.708 17.809 18.4893 16.9504 18.9718C16.0919 19.4543 15.0858 19.6043 14.1238 19.3932C13.1618 19.1822 12.3109 18.6248 11.7333 17.8273C11.1557 17.0297 10.8916 16.0476 10.9913 15.068C11.091 14.0884 11.5476 13.1796 12.2741 12.5148C13.0005 11.8499 13.9462 11.4753 14.931 11.4623C15.9159 11.4493 16.8711 11.7988 17.6149 12.4443C18.3586 13.0898 18.839 13.9862 18.9645 14.9628C18.9716 15.0173 18.9882 15.0693 19 15.1226V15.8644ZM14.9856 15.4846V15.2645C14.9856 14.5357 14.9856 13.8072 14.9856 13.0792C14.9903 13.0173 14.9903 12.9552 14.9856 12.8934C14.9771 12.8002 14.9331 12.7138 14.8625 12.6523C14.7919 12.5908 14.7004 12.5589 14.6069 12.5633C14.5129 12.5655 14.4236 12.6048 14.3586 12.6727C14.2936 12.7405 14.2582 12.8314 14.2601 12.9253C14.2601 13.9003 14.2601 14.8757 14.2601 15.8514C14.2572 15.8969 14.2636 15.9425 14.279 15.9854C14.2944 16.0283 14.3184 16.0676 14.3496 16.1008C14.3807 16.1341 14.4184 16.1606 14.4602 16.1788C14.502 16.1969 14.5471 16.2063 14.5927 16.2064C15.2239 16.2135 15.8551 16.2135 16.4863 16.2064C16.5316 16.2053 16.5763 16.1952 16.6177 16.1768C16.6591 16.1583 16.6964 16.1318 16.7274 16.0987C16.7585 16.0657 16.7827 16.0268 16.7986 15.9844C16.8145 15.9419 16.8217 15.8967 16.82 15.8514C16.8218 15.8049 16.8141 15.7584 16.7976 15.7149C16.781 15.6713 16.7559 15.6315 16.7236 15.5978C16.6914 15.5642 16.6527 15.5374 16.6099 15.5189C16.5671 15.5005 16.521 15.4908 16.4744 15.4906C16.0543 15.4811 15.6341 15.4906 15.2152 15.4906L14.9856 15.4846Z" fill="#424CA8"/>
<path d="M0.00828548 4.89355H16.0578V10.8534C14.6435 10.5635 13.3357 10.8013 12.17 11.6603C11.0042 12.5193 10.3864 13.6801 10.2338 15.1177H10.0586C7.57325 15.1177 5.08789 15.1177 2.60253 15.1177C1.33499 15.1177 0.313631 14.2989 0.0532593 13.0826C0.0178151 12.9193 -4.06662e-05 12.7527 6.95417e-08 12.5856C6.95417e-08 10.0701 6.95417e-08 7.5542 6.95417e-08 5.0379C0.00118358 4.99531 0.00473496 4.95272 0.00828548 4.89355ZM3.84876 10.3706H2.64395C2.32085 10.3706 2.19304 10.4972 2.19185 10.8179C2.19185 11.6154 2.19185 12.4129 2.19185 13.2103C2.19185 13.518 2.32322 13.6552 2.62975 13.6576C3.43374 13.6576 4.23734 13.6576 5.04055 13.6576C5.34944 13.6576 5.48318 13.5204 5.48436 13.2139C5.48436 12.4109 5.48436 11.6075 5.48436 10.8037C5.48436 10.4984 5.34708 10.3706 5.03582 10.3706H3.84876ZM9.50118 12.0082C9.50118 11.6071 9.50118 11.2048 9.50118 10.8037C9.50118 10.5043 9.36981 10.3718 9.07275 10.3718C8.26323 10.3718 7.45372 10.3718 6.6442 10.3718C6.34833 10.3718 6.21459 10.502 6.2134 10.8025C6.2134 11.6118 6.2134 12.4211 6.2134 13.2305C6.2134 13.5168 6.34951 13.6564 6.63355 13.6576C7.44859 13.6623 8.26442 13.6623 9.08104 13.6576C9.37336 13.6576 9.5 13.5133 9.50118 13.2127C9.50118 12.8116 9.50118 12.4093 9.50118 12.0082ZM3.82035 9.63469H5.0512C5.35063 9.63469 5.4891 9.50097 5.49028 9.20872C5.49028 8.39941 5.49028 7.59009 5.49028 6.78077C5.49028 6.49088 5.35773 6.35365 5.0725 6.35246C4.25115 6.35246 3.4294 6.35246 2.60726 6.35246C2.3315 6.35246 2.20014 6.49208 2.19896 6.76777C2.19896 7.58261 2.19896 8.39783 2.19896 9.21346C2.19896 9.49625 2.33742 9.63114 2.62383 9.6335C3.01912 9.63705 3.42033 9.63469 3.82272 9.63469H3.82035ZM9.50118 7.99001C9.50118 7.5818 9.50118 7.17479 9.50118 6.76659C9.50118 6.49208 9.36863 6.35483 9.09169 6.35246C8.27034 6.35246 7.44859 6.35246 6.62645 6.35246C6.34951 6.35246 6.21459 6.48735 6.2134 6.76422C6.2134 7.58537 6.2134 8.40689 6.2134 9.22883C6.2134 9.50215 6.35661 9.6335 6.63355 9.6335C7.44859 9.6335 8.26402 9.6335 9.07985 9.6335C9.36389 9.6335 9.5 9.49506 9.50118 9.21227C9.50236 8.80525 9.50118 8.39703 9.50118 7.99001Z" fill="#2D3370"/>
<path d="M2.94336 11.1094H4.73637V12.9197H2.94336V11.1094Z" fill="#424CA8"/>
<path d="M8.75596 11.1094V12.9197H6.95703V11.1094H8.75596Z" fill="#424CA8"/>
<path d="M2.9375 7.08691H4.73525V8.89368H2.9375V7.08691Z" fill="#424CA8"/>
<path d="M8.75679 8.89682H6.95312V7.08887H8.75679V8.89682Z" fill="#424CA8"/>
</svg>
