<svg width="64" height="64" viewBox="0 0 64 64" fill="none" xmlns="http://www.w3.org/2000/svg">
<circle cx="32" cy="32" r="32" fill="url(#paint0_linear_1901_39246)"/>
<path d="M30.812 39.964C30.3391 40.4846 29.9978 41.1109 29.8169 41.7905C29.6359 42.4701 29.6205 43.1832 29.772 43.87C24.644 43.146 21.668 39.528 21.668 36V35C21.668 34.2044 21.984 33.4413 22.5466 32.8787C23.1093 32.3161 23.8723 32 24.668 32H36.714C36.754 32.966 37.154 33.902 37.878 34.61L38.914 35.622C38.7085 36.5097 38.2061 37.3007 37.49 37.864L35.92 37.492C35.1988 37.3225 34.4454 37.3497 33.7383 37.5706C33.0312 37.7915 32.3964 38.1981 31.9 38.748L30.812 39.964ZM31.668 19C33.1267 19 34.5256 19.5795 35.5571 20.6109C36.5885 21.6424 37.168 23.0413 37.168 24.5C37.168 25.9587 36.5885 27.3576 35.5571 28.3891C34.5256 29.4205 33.1267 30 31.668 30C30.2093 30 28.8103 29.4205 27.7789 28.3891C26.7474 27.3576 26.168 25.9587 26.168 24.5C26.168 23.0413 26.7474 21.6424 27.7789 20.6109C28.8103 19.5795 30.2093 19 31.668 19ZM38.836 31.162L39.402 29.662C39.918 28.302 41.526 27.63 42.882 28.208L43.658 28.54C44.604 28.944 45.388 29.676 45.552 30.66C46.466 36.11 41.736 43.862 36.292 45.84C35.308 46.196 34.244 45.92 33.402 45.348L32.71 44.878C32.4259 44.6866 32.1867 44.4359 32.0089 44.1431C31.8311 43.8503 31.7189 43.5225 31.6801 43.1821C31.6413 42.8418 31.6768 42.4971 31.7842 42.1718C31.8916 41.8465 32.0682 41.5484 32.302 41.298L33.392 40.084C33.648 39.802 33.9746 39.5935 34.3382 39.48C34.7017 39.3664 35.089 39.3519 35.46 39.438L37.91 40.018C39.8526 38.8047 40.894 37.098 41.034 34.898L39.278 33.178C39.0157 32.9217 38.8341 32.5943 38.7556 32.2361C38.6771 31.8779 38.705 31.5045 38.836 31.162Z" fill="white"/>
<defs>
<linearGradient id="paint0_linear_1901_39246" x1="8.66797" y1="-8.90641e-07" x2="58.168" y2="64" gradientUnits="userSpaceOnUse">
<stop stop-color="#424CA8"/>
<stop offset="1" stop-color="#1B2267"/>
</linearGradient>
</defs>
</svg>
