<svg width="16" height="16" viewBox="0 0 16 16" fill="none" xmlns="http://www.w3.org/2000/svg">
<g clip-path="url(#clip0_1740_20884)">
<path d="M4 0C2.89688 0 2 0.896875 2 2V14C2 15.1031 2.89688 16 4 16H12C13.1031 16 14 15.1031 14 14V5H10C9.44688 5 9 4.55312 9 4V0H4ZM4 2.5C4 2.225 4.225 2 4.5 2H6.5C6.775 2 7 2.225 7 2.5C7 2.775 6.775 3 6.5 3H4.5C4.225 3 4 2.775 4 2.5ZM4 4.5C4 4.225 4.225 4 4.5 4H6.5C6.775 4 7 4.225 7 4.5C7 4.775 6.775 5 6.5 5H4.5C4.225 5 4 4.775 4 4.5ZM8 6.75C8.275 6.75 8.5 6.975 8.5 7.25V7.79063C8.76562 7.82812 9.02188 7.8875 9.25313 7.95C9.51875 8.02187 9.67812 8.29375 9.60625 8.5625C9.53437 8.83125 9.2625 8.9875 8.99375 8.91562C8.64687 8.82187 8.30625 8.75313 7.99062 8.75C7.72813 8.74687 7.44688 8.80625 7.25313 8.92188C7.075 9.02812 7 9.15 7 9.32187C7 9.4375 7.04063 9.525 7.22813 9.6375C7.44375 9.76562 7.74687 9.85938 8.14062 9.97812L8.15625 9.98125C8.50938 10.0875 8.94688 10.2188 9.29063 10.4375C9.66875 10.675 9.99062 11.0531 10 11.6313C10.0094 12.2344 9.7 12.6719 9.28438 12.9312C9.04375 13.0812 8.77187 13.1687 8.5 13.2156V13.75C8.5 14.025 8.275 14.25 8 14.25C7.725 14.25 7.5 14.025 7.5 13.75V13.1938C7.15 13.1281 6.82188 13.0156 6.53438 12.9156C6.46875 12.8937 6.40312 12.8719 6.34062 12.85C6.07812 12.7625 5.9375 12.4781 6.025 12.2188C6.1125 11.9594 6.39687 11.8156 6.65625 11.9031C6.73438 11.9281 6.80625 11.9531 6.87813 11.9781C7.30313 12.1219 7.64687 12.2406 8.0125 12.25C8.29688 12.2594 8.57188 12.1969 8.75313 12.0844C8.9125 11.9844 9 11.8563 8.99687 11.6469C8.99375 11.5031 8.94062 11.4031 8.75625 11.2844C8.54375 11.15 8.24062 11.0531 7.85 10.9344L7.8 10.9187C7.45625 10.8156 7.04063 10.6906 6.7125 10.4906C6.3375 10.2656 6.00625 9.9 6.00313 9.325C6 8.71875 6.34062 8.3 6.74687 8.05937C6.98125 7.92188 7.24062 7.83437 7.5 7.7875V7.24687C7.5 6.97187 7.725 6.74687 8 6.74687V6.75Z" fill="#2D3370"/>
<path d="M10 4V0L14 4H10Z" fill="#8E94CB"/>
</g>
<defs>
<clipPath id="clip0_1740_20884">
<rect width="12" height="16" fill="white" transform="translate(2)"/>
</clipPath>
</defs>
</svg>
