<svg width="220" height="40" viewBox="0 0 220 40" fill="none" xmlns="http://www.w3.org/2000/svg">
<path d="M71.1453 10.3338C71.1379 10.1886 71.1838 10.0456 71.2742 9.93177C71.326 9.88013 71.3881 9.84009 71.4566 9.81432C71.525 9.78855 71.5982 9.77764 71.6711 9.7823H79.342C79.866 9.78051 80.3872 9.85695 80.8886 10.0091C81.8362 10.3038 82.6837 10.855 83.3373 11.6017C83.664 11.968 83.9444 12.373 84.1724 12.8077C84.3977 13.2392 84.5708 13.6959 84.688 14.1683C84.8094 14.6415 84.87 15.1281 84.8684 15.6166C84.868 16.3368 84.737 17.0511 84.4817 17.7246C84.2273 18.4013 83.8497 19.0251 83.3682 19.5645C82.8819 20.105 82.2955 20.5461 81.6412 20.8634C80.947 21.2054 80.183 21.3818 79.409 21.3788H75.8004V27.0893C75.8004 27.4347 75.6148 27.6047 75.2488 27.6047H71.6814C71.5427 27.6109 71.4066 27.5649 71.3 27.4759C71.2479 27.4257 71.2079 27.3644 71.1829 27.2966C71.1579 27.2287 71.1486 27.1561 71.1556 27.0842L71.1453 10.3338ZM80.1823 15.5908C80.1822 15.3446 80.1385 15.1003 80.0534 14.8693C79.9727 14.6351 79.8486 14.4183 79.6874 14.2302C79.5269 14.0375 79.3287 13.8796 79.1049 13.7663C78.8657 13.6439 78.6002 13.582 78.3316 13.5859H75.7901V17.5957H78.3316C78.6015 17.6012 78.8686 17.5411 79.11 17.4205C79.3338 17.314 79.5324 17.1612 79.6926 16.9721C79.8532 16.7845 79.9758 16.5674 80.0534 16.333C80.1403 16.0953 80.1839 15.8439 80.1823 15.5908Z" fill="#2D3370"/>
<path d="M102.251 26.7131C102.254 26.8472 102.229 26.9804 102.179 27.1049C102.134 27.2256 102.05 27.3286 101.942 27.3986C101.857 27.485 101.747 27.5427 101.628 27.5636C101.526 27.588 101.422 27.6018 101.318 27.6048H98.952C98.8132 27.6084 98.675 27.5857 98.5447 27.5378C98.447 27.4968 98.3605 27.4332 98.2921 27.3523C98.2227 27.264 98.1687 27.1647 98.1323 27.0585C98.0859 26.9399 98.0395 26.8162 97.9931 26.6771L97.8333 26.1617C97.6021 26.3893 97.3558 26.6011 97.0961 26.7956C96.8102 27.0095 96.5046 27.1958 96.1836 27.3523C95.843 27.522 95.4853 27.6551 95.1165 27.7491C94.7309 27.8485 94.3342 27.8988 93.936 27.8986C93.2293 27.9006 92.5255 27.8087 91.843 27.6254C90.5354 27.2696 89.3443 26.5764 88.389 25.6154C87.9195 25.1283 87.5126 24.5847 87.1776 23.997C86.8325 23.404 86.5673 22.768 86.3888 22.1055C86.2055 21.4144 86.1136 20.7022 86.1156 19.9872C86.1054 18.9252 86.3143 17.8726 86.7291 16.8948C87.1182 15.9623 87.6836 15.1136 88.3942 14.3951C89.1244 13.6738 89.9897 13.1036 90.9407 12.7171C91.8916 12.3306 92.9095 12.1355 93.936 12.1429C94.8336 12.1336 95.7195 12.3479 96.5136 12.7665C96.8631 12.9545 97.1871 13.1866 97.4776 13.4571C97.7615 13.7187 98.0156 14.0108 98.2354 14.3281L98.5808 13.2355L98.7819 12.751C98.8208 12.6496 98.8765 12.5555 98.9468 12.4727C99.009 12.4144 99.0855 12.3735 99.1685 12.3542C99.2925 12.3307 99.4186 12.3203 99.5448 12.3233H101.334C101.438 12.3268 101.541 12.3389 101.643 12.3593C101.762 12.3844 101.871 12.4435 101.957 12.5294C102.061 12.6074 102.142 12.7102 102.195 12.8283C102.246 12.9487 102.271 13.0789 102.267 13.2097L102.251 26.7131ZM90.4305 20.013C90.4262 20.5184 90.5099 21.0206 90.6779 21.4973C90.8297 21.9386 91.068 22.3451 91.379 22.6931C91.6869 23.0299 92.0606 23.3001 92.4771 23.4868C92.9236 23.6892 93.4097 23.7895 93.8999 23.7805C94.4132 23.7873 94.9223 23.6873 95.3949 23.4868C95.8402 23.3002 96.2461 23.0309 96.5909 22.6931C96.9337 22.3512 97.2053 21.9448 97.39 21.4973C97.775 20.5523 97.775 19.4942 97.39 18.5493C97.0163 17.6302 96.3013 16.8914 95.3949 16.4877C94.923 16.2838 94.4139 16.1802 93.8999 16.1836C93.4089 16.178 92.9229 16.2819 92.4771 16.4877C92.0575 16.6875 91.6837 16.9717 91.379 17.3226C91.0687 17.6808 90.8307 18.0956 90.6779 18.5441C90.5138 19.0093 90.4301 19.4991 90.4305 19.9924V20.013Z" fill="#2D3370"/>
<path d="M104.188 13.5498C104.114 13.4242 104.067 13.2845 104.051 13.1396C104.035 12.9948 104.05 12.8483 104.095 12.7097C104.198 12.4777 104.435 12.3643 104.811 12.3643H107.905C108.099 12.3619 108.29 12.4195 108.451 12.5293C108.611 12.6506 108.727 12.8207 108.781 13.0137L109.229 14.4311C109.394 14.9465 109.564 15.4928 109.745 16.034L110.26 17.6523L110.745 19.1367C110.895 19.5902 111.023 19.9819 111.142 20.3169C111.261 20.6519 111.343 20.8942 111.4 21.0385L113.941 13.0137C114.009 12.8118 114.132 12.6332 114.297 12.4983C114.467 12.4038 114.66 12.3591 114.854 12.3695H117.699C117.875 12.3622 118.05 12.3903 118.215 12.452C118.319 12.4961 118.403 12.5768 118.452 12.6787C118.492 12.7839 118.501 12.8984 118.478 13.0086C118.449 13.1421 118.409 13.2731 118.359 13.4003L117.039 16.6267C117.091 16.7658 117.199 16.9926 117.359 17.3173C117.519 17.642 117.704 18.0079 117.906 18.4203C118.107 18.8326 118.318 19.2655 118.529 19.7191C118.741 20.1726 118.921 20.5901 119.045 20.9818L121.983 13.0189C122.048 12.8245 122.157 12.6479 122.303 12.5035C122.445 12.4068 122.616 12.3614 122.787 12.3746H125.442C125.725 12.3449 126.008 12.4221 126.236 12.5911C126.375 12.7354 126.386 13.0034 126.236 13.4054L120.648 27.0892C120.573 27.2386 120.459 27.365 120.318 27.4552C120.126 27.5705 119.903 27.6244 119.679 27.6098H118.416C118.179 27.6283 117.941 27.5744 117.735 27.4552C117.587 27.3585 117.467 27.2254 117.385 27.0686L115.153 21.6209L112.951 27.0892C112.869 27.229 112.763 27.353 112.637 27.4552C112.488 27.5644 112.306 27.619 112.121 27.6098H110.688C110.454 27.6292 110.22 27.5809 110.013 27.4706C109.878 27.3765 109.776 27.2434 109.719 27.0892L104.188 13.5498Z" fill="#2D3370"/>
<path d="M128.568 12.576C128.659 12.4932 128.771 12.4363 128.892 12.4111C129.002 12.3869 129.115 12.3748 129.228 12.375H131.037C131.165 12.3714 131.292 12.3979 131.408 12.4523C131.51 12.5035 131.599 12.5755 131.671 12.6636C131.746 12.7527 131.805 12.8538 131.846 12.9626C131.893 13.0708 131.934 13.1894 131.975 13.3079L132.228 14.3387C132.365 14.0628 132.539 13.8063 132.743 13.5759C132.988 13.2927 133.275 13.0493 133.594 12.8543C133.98 12.6286 134.394 12.4553 134.826 12.3389C135.37 12.1916 135.933 12.1222 136.496 12.1328C136.96 12.1262 137.422 12.1764 137.873 12.2822C138.269 12.3745 138.649 12.5238 139.002 12.7255C139.344 12.9189 139.656 13.1601 139.93 13.4419C140.225 13.7405 140.491 14.0667 140.724 14.416C140.911 14.1262 141.138 13.8642 141.399 13.6377C141.729 13.3506 142.09 13.1016 142.476 12.8956C142.919 12.6621 143.386 12.4772 143.868 12.3441C144.399 12.1991 144.947 12.128 145.497 12.1328C146.324 12.1102 147.145 12.2869 147.889 12.6482C148.558 12.9886 149.138 13.479 149.585 14.081C150.059 14.72 150.409 15.4419 150.616 16.2096C150.842 17.0499 150.955 17.9165 150.951 18.7866V26.6773C150.968 26.9233 150.899 27.1674 150.756 27.3679C150.674 27.4514 150.574 27.516 150.465 27.5569C150.355 27.5979 150.238 27.6143 150.121 27.605H147.353C147.103 27.6298 146.852 27.5679 146.642 27.4298C146.567 27.3346 146.511 27.2255 146.478 27.1087C146.445 26.9919 146.436 26.8698 146.451 26.7495V18.8433C146.452 18.517 146.398 18.1929 146.291 17.8846C146.19 17.6009 146.036 17.3386 145.837 17.1115C145.646 16.8892 145.406 16.713 145.136 16.5961C144.847 16.4695 144.534 16.4063 144.219 16.4106C143.922 16.4071 143.628 16.4687 143.358 16.591C143.085 16.7133 142.84 16.8885 142.636 17.1064C142.415 17.3253 142.239 17.5865 142.121 17.8743C141.994 18.1888 141.931 18.525 141.935 18.8639V26.6773C141.952 26.9233 141.883 27.1674 141.739 27.3679C141.657 27.4514 141.558 27.516 141.448 27.5569C141.339 27.5979 141.222 27.6143 141.105 27.605H138.332C138.083 27.629 137.834 27.5671 137.625 27.4298C137.55 27.3346 137.495 27.2255 137.462 27.1087C137.429 26.9919 137.42 26.8698 137.435 26.7495V18.8433C137.436 18.5178 137.386 18.1941 137.285 17.8846C137.189 17.6028 137.042 17.3409 136.852 17.1115C136.665 16.8908 136.43 16.7147 136.166 16.5961C135.883 16.4691 135.575 16.4057 135.264 16.4106C134.972 16.4113 134.683 16.469 134.414 16.5807C134.137 16.7064 133.886 16.881 133.671 17.0961C133.444 17.3162 133.258 17.5744 133.12 17.8588C132.969 18.1666 132.882 18.5013 132.862 18.8433V26.7598C132.862 26.8991 132.836 27.0372 132.785 27.1669C132.742 27.2948 132.659 27.4052 132.547 27.4813C132.457 27.5393 132.358 27.5828 132.254 27.6102C132.151 27.6386 132.045 27.6524 131.939 27.6514H129.228C129.099 27.672 128.967 27.6627 128.843 27.6241C128.719 27.5855 128.605 27.5187 128.51 27.4289C128.416 27.3391 128.344 27.2287 128.299 27.1064C128.255 26.9841 128.239 26.8531 128.253 26.7237V13.3234C128.249 13.1774 128.285 13.0332 128.356 12.9059C128.418 12.7812 128.515 12.6772 128.635 12.6069L128.568 12.576Z" fill="#2D3370"/>
<path d="M166.592 25.7804C165.896 26.423 165.091 26.9362 164.215 27.2956C163.33 27.6623 162.379 27.8481 161.421 27.8419C160.361 27.8454 159.31 27.6423 158.328 27.2441C157.369 26.8609 156.494 26.2955 155.75 25.5794C155.009 24.8684 154.413 24.0192 153.998 23.0797C153.559 22.0936 153.338 21.025 153.348 19.9461C153.346 19.2507 153.433 18.5579 153.606 17.8845C153.772 17.2382 154.018 16.615 154.338 16.029C154.655 15.4537 155.043 14.9204 155.493 14.4416C155.94 13.9613 156.449 13.5435 157.008 13.1995C158.181 12.4951 159.527 12.1294 160.895 12.1429C161.549 12.1417 162.199 12.2302 162.828 12.4058C163.443 12.5821 164.033 12.833 164.586 13.1531C165.133 13.4731 165.639 13.8591 166.092 14.3025C166.54 14.7441 166.934 15.2372 167.267 15.7713C167.595 16.3041 167.851 16.8777 168.03 17.4773C168.21 18.0828 168.3 18.7114 168.298 19.343C168.298 19.7588 168.298 20.1024 168.298 20.3738C168.295 20.5965 168.231 20.8141 168.112 21.0026C167.97 21.175 167.771 21.2902 167.55 21.3273C167.174 21.3999 166.79 21.431 166.406 21.4201H157.761C157.82 21.8797 157.986 22.3191 158.245 22.7034C158.475 23.0144 158.762 23.2785 159.091 23.4817C159.407 23.6852 159.756 23.8334 160.122 23.9198C160.459 24.0056 160.805 24.0506 161.153 24.0538C161.451 24.0527 161.748 24.0216 162.04 23.961C162.339 23.9039 162.634 23.8247 162.921 23.7239C163.192 23.6298 163.454 23.5126 163.705 23.3735C163.912 23.2625 164.102 23.1237 164.272 22.9611C164.378 22.8766 164.488 22.7974 164.602 22.724C164.691 22.6734 164.793 22.6468 164.896 22.6467C165.011 22.6496 165.122 22.6873 165.215 22.755C165.348 22.8464 165.471 22.9518 165.581 23.0694L166.855 24.5073C166.929 24.5899 166.987 24.6862 167.025 24.7908C167.045 24.8751 167.056 24.9617 167.056 25.0485C167.061 25.1966 167.015 25.3419 166.927 25.4608C166.834 25.5855 166.721 25.6935 166.592 25.7804ZM160.818 15.7816C160.508 15.7815 160.201 15.8446 159.916 15.9672C159.618 16.0997 159.34 16.2731 159.091 16.4826C158.834 16.6904 158.602 16.9274 158.4 17.1887C158.2 17.4377 158.028 17.7072 157.885 17.9927H164.014C163.854 17.6925 163.671 17.4048 163.468 17.132C163.277 16.8708 163.051 16.6368 162.797 16.4362C162.537 16.232 162.245 16.0734 161.931 15.9672C161.573 15.8439 161.197 15.7812 160.818 15.7816Z" fill="#2D3370"/>
<path d="M170.805 9.98868C170.798 9.88274 170.816 9.7766 170.86 9.67955C170.903 9.58251 170.969 9.49753 171.053 9.43205C171.267 9.27951 171.504 9.15966 171.754 9.07642L174.481 8.12809C174.518 8.12324 174.557 8.12324 174.594 8.12809H174.697C174.81 8.11222 174.925 8.12788 175.03 8.17336C175.135 8.21884 175.225 8.29236 175.29 8.38579C175.4 8.59321 175.452 8.82653 175.44 9.06096V12.3595H177.084C177.198 12.3551 177.312 12.3734 177.419 12.4132C177.526 12.453 177.624 12.5136 177.708 12.5914C177.793 12.6819 177.858 12.7892 177.899 12.9064C177.94 13.0236 177.955 13.1481 177.945 13.2718V15.591C177.957 15.7235 177.942 15.8571 177.902 15.9837C177.861 16.1103 177.795 16.2275 177.708 16.3281C177.624 16.4059 177.526 16.4665 177.419 16.5063C177.312 16.5461 177.198 16.5644 177.084 16.56H175.44V26.6876C175.449 26.8149 175.43 26.9427 175.385 27.0619C175.339 27.1812 175.268 27.2892 175.177 27.3782C174.97 27.5446 174.71 27.629 174.445 27.6153H171.723C171.597 27.6334 171.468 27.6219 171.347 27.5817C171.226 27.5414 171.117 27.4736 171.027 27.3836C170.936 27.2935 170.869 27.1838 170.828 27.0629C170.788 26.9421 170.777 26.8136 170.795 26.6876V16.56H169.558C168.944 16.56 168.635 16.2353 168.635 15.591V13.2718C168.617 13.147 168.629 13.0198 168.67 12.9005C168.71 12.7811 168.778 12.6728 168.867 12.5842C168.957 12.4956 169.066 12.4291 169.186 12.3901C169.306 12.3511 169.433 12.3406 169.558 12.3595H170.795L170.805 9.98868Z" fill="#2D3370"/>
<path d="M180.196 13.251C180.192 13.1141 180.22 12.9782 180.278 12.8541C180.332 12.7484 180.407 12.6552 180.5 12.581C180.594 12.507 180.7 12.4511 180.814 12.416C180.924 12.382 181.039 12.3647 181.154 12.3645H182.969C183.057 12.3592 183.145 12.3726 183.228 12.4037C183.311 12.4348 183.386 12.4829 183.449 12.5449C183.576 12.6768 183.679 12.8304 183.753 12.9984C183.844 13.196 183.919 13.4012 183.974 13.6118C184.04 13.8317 184.117 14.0481 184.206 14.2612C184.444 13.9931 184.681 13.7458 184.918 13.4778C185.149 13.2268 185.405 12.9989 185.681 12.7974C185.956 12.5944 186.258 12.4297 186.578 12.3078C186.94 12.1826 187.323 12.1267 187.707 12.1429C188.096 12.1382 188.484 12.171 188.867 12.2408C189.197 12.3017 189.52 12.3967 189.831 12.5243C190.147 12.6536 190.451 12.8124 190.738 12.9984C191.037 13.1891 191.362 13.4107 191.717 13.6684C191.86 13.728 191.983 13.8252 192.074 13.9497C192.164 14.0741 192.22 14.221 192.233 14.3745C192.22 14.5929 192.151 14.8041 192.032 14.9879L190.939 16.8485C190.856 16.9882 190.738 17.1044 190.597 17.1865C190.457 17.2685 190.298 17.3135 190.135 17.3175C189.956 17.3067 189.781 17.2611 189.619 17.1835C189.322 16.876 188.973 16.623 188.588 16.4361C188.204 16.2652 187.787 16.1808 187.367 16.1887C187.088 16.183 186.81 16.2266 186.547 16.3176C186.313 16.4062 186.095 16.5334 185.902 16.6938C185.711 16.8656 185.538 17.0574 185.387 17.2659C185.222 17.4927 185.052 17.7401 184.871 18.0133V26.6771C184.888 26.9271 184.809 27.1741 184.65 27.3677C184.549 27.4545 184.432 27.5202 184.305 27.5609C184.179 27.6016 184.045 27.6166 183.913 27.6048H181.211C181.085 27.6236 180.955 27.6126 180.834 27.5728C180.712 27.533 180.601 27.4654 180.51 27.3754C180.419 27.2854 180.35 27.1754 180.309 27.0542C180.268 26.933 180.256 26.8039 180.273 26.6771L180.196 13.251Z" fill="#2D3370"/>
<path d="M193.995 7.22581C193.982 7.09883 193.995 6.97057 194.032 6.84847C194.069 6.72638 194.13 6.61288 194.212 6.51456C194.401 6.35967 194.643 6.28396 194.887 6.30325H197.671C197.914 6.29183 198.153 6.36668 198.346 6.51456C198.441 6.60543 198.513 6.71683 198.558 6.84015C198.603 6.96348 198.618 7.09544 198.604 7.22581V9.56571C198.602 9.67333 198.581 9.77975 198.542 9.88011C198.494 9.99583 198.432 10.1049 198.356 10.2048C198.275 10.3078 198.175 10.3951 198.063 10.4625C197.943 10.5308 197.808 10.5664 197.671 10.5656H194.887C194.294 10.5656 193.995 10.2306 193.995 9.56571V7.22581Z" fill="#2D3370"/>
<path d="M193.996 13.2972C193.99 13.0589 194.067 12.8258 194.213 12.6375C194.297 12.5427 194.401 12.4687 194.518 12.4213C194.636 12.3738 194.762 12.3544 194.888 12.3644H197.636C197.743 12.3659 197.848 12.3886 197.945 12.4314C198.061 12.4756 198.167 12.5402 198.26 12.6221C198.357 12.7066 198.44 12.8057 198.507 12.9158C198.574 13.0317 198.608 13.1636 198.605 13.2972V26.6976C198.614 26.8236 198.597 26.9501 198.554 27.069C198.512 27.1879 198.445 27.2967 198.358 27.3882C198.156 27.5562 197.898 27.641 197.636 27.6253H194.888C194.295 27.6253 193.996 27.316 193.996 26.6976V13.2972Z" fill="#2D3370"/>
<path d="M200.563 27.1462C200.55 27.0899 200.549 27.0316 200.56 26.9749C200.571 26.9181 200.593 26.8642 200.625 26.8163C200.687 26.7081 200.744 26.6205 200.79 26.5483L205.569 19.8121L201.043 13.3851C200.961 13.2809 200.893 13.1666 200.842 13.0449C200.786 12.9443 200.763 12.8292 200.775 12.715C200.781 12.665 200.798 12.617 200.824 12.5742C200.851 12.5315 200.887 12.4951 200.929 12.4677C201.067 12.3859 201.228 12.3498 201.388 12.3646H205.162C205.23 12.365 205.297 12.381 205.357 12.4114C205.418 12.4417 205.471 12.4857 205.512 12.5398C205.637 12.6818 205.752 12.8316 205.858 12.9882L208.146 16.6939C208.301 16.4774 208.476 16.2043 208.662 15.8744C208.848 15.5446 209.064 15.1993 209.281 14.8436C209.497 14.488 209.693 14.1375 209.889 13.8128C210.085 13.4881 210.255 13.1944 210.404 12.9624C210.506 12.7928 210.635 12.6412 210.786 12.514C210.903 12.4205 211.049 12.3712 211.198 12.3749H215.029C215.121 12.3747 215.212 12.394 215.297 12.4316C215.377 12.4699 215.447 12.5285 215.498 12.6017C215.546 12.6765 215.566 12.766 215.554 12.8542C215.538 12.9729 215.484 13.0832 215.4 13.1686L210.709 19.7915L215.379 26.3164C215.474 26.4524 215.555 26.5974 215.621 26.7493C215.684 26.8796 215.716 27.0224 215.714 27.1668C215.71 27.2297 215.693 27.2909 215.662 27.3462C215.632 27.4014 215.59 27.4493 215.539 27.4863C215.375 27.5856 215.184 27.6307 214.993 27.6152H211.106C210.923 27.6094 210.747 27.546 210.602 27.4339C210.458 27.3219 210.352 27.1671 210.301 26.9916L208.162 23.1467L206.002 27.0379C205.923 27.2008 205.809 27.3436 205.667 27.4554C205.556 27.5509 205.416 27.6071 205.27 27.6152H201.094C200.993 27.617 200.894 27.5921 200.805 27.543C200.71 27.4786 200.64 27.3842 200.604 27.275L200.563 27.1462Z" fill="#2D3370"/>
<path d="M58.6443 6.95788C57.2696 4.47023 55.656 2.81752 53.8036 1.99976C47.8751 -0.577228 41.1373 6.70018 35.3068 7.47328C31.7877 7.91604 28.2149 7.36061 24.9965 5.87039L24.8676 5.65393C23.8801 3.99036 22.6656 2.47251 21.259 1.1442C21.1831 1.06481 21.0919 1.00168 20.9909 0.958655C18.5009 -0.0979101 16.2224 -0.278298 14.1757 0.412335C9.31958 2.04099 4.6129 11.581 3.34988 15.6114L2.95293 17.1885L2.92716 17.338C2.86958 17.6634 2.83342 17.9922 2.8189 18.3224C2.71064 20.2654 3.30865 21.8374 5.03563 22.6363L5.87592 24.0021C7.59431 28.5204 9.84196 32.1041 12.6189 34.7533C15.3533 37.3851 18.7876 39.1743 22.5117 39.9072L24.1252 39.9639C24.0943 39.7062 24.0685 39.4485 24.0428 39.1805C23.9809 38.4332 23.95 37.6756 23.9345 36.9231V35.2893C23.9292 35.2413 23.9292 35.1929 23.9345 35.145C23.9345 35.0883 23.9345 35.0316 23.9345 34.9749C23.9603 34.1451 24.017 33.3102 24.1046 32.4804C27.1198 34.4091 30.5279 35.64 34.0799 36.083C39.6234 36.6706 45.1223 34.9371 50.5764 30.8826C51.6561 30.4415 52.6707 29.8554 53.5922 29.1406C55.998 27.2714 57.7164 24.5226 58.7474 20.8942C60.1135 16.2299 61.0157 11.2666 58.6443 6.95788ZM57.2421 20.4664C56.3038 23.7547 54.7573 26.2286 52.6024 27.8882C50.4476 29.5477 47.6981 30.4188 44.3541 30.5012C40.955 30.493 37.576 29.9806 34.3273 28.9808C34.2264 28.9477 34.1199 28.9352 34.0141 28.9442C33.9083 28.9533 33.8054 28.9835 33.7116 29.0332C33.6178 29.083 33.535 29.1511 33.4682 29.2336C33.4013 29.3161 33.3518 29.4112 33.3227 29.5133C33.2935 29.6154 33.2852 29.7223 33.2984 29.8276C33.3116 29.933 33.3458 30.0346 33.3992 30.1264C33.4526 30.2181 33.524 30.2982 33.609 30.3617C33.6941 30.4252 33.7911 30.4709 33.8943 30.4961C37.2935 31.5483 40.8318 32.0835 44.3902 32.0835C44.9057 32.0835 45.4213 32.0423 45.9058 31.9959C42.0223 34.085 38.1456 34.9233 34.2758 34.511C30.8734 34.1468 27.4538 32.824 24.017 30.5425C23.9868 30.5182 23.9539 30.4975 23.919 30.4806C22.0325 29.2022 20.2579 27.7659 18.6144 26.1874C18.4626 26.0425 18.2595 25.9638 18.0497 25.9686C17.8399 25.9735 17.6406 26.0614 17.4957 26.2131C17.3508 26.3649 17.2721 26.5679 17.2769 26.7777C17.2817 26.9874 17.3697 27.1867 17.5215 27.3315C19.1294 28.8682 20.8529 30.2794 22.6766 31.5527C22.5392 32.6556 22.4498 33.7603 22.4086 34.8667C19.8752 33.9301 17.5786 32.4487 15.6811 30.527C13.3153 28.0729 11.3962 25.2246 10.0104 22.1106C14.6852 19.6898 19.1663 16.9122 23.4138 13.8024C23.5834 13.6793 23.6971 13.494 23.7299 13.2872C23.7628 13.0803 23.7121 12.8689 23.5891 12.6994C23.466 12.5299 23.2807 12.4162 23.0738 12.3834C22.8669 12.3505 22.6554 12.4011 22.4859 12.5242C17.7595 15.9928 12.7281 19.0254 7.45341 21.5849C5.10265 21.3993 4.33453 20.1263 4.43247 18.41C4.60775 15.0702 10.0104 3.49441 14.681 1.91729C16.3272 1.36067 18.1848 1.51013 20.2537 2.36569C21.5275 3.58336 22.6274 4.97082 23.5221 6.48887C23.5943 6.61256 23.6716 6.74141 23.7438 6.88057L23.7798 6.91665C24.7549 8.64335 25.576 10.4525 26.2337 12.3232C26.3186 12.4978 26.4646 12.6352 26.644 12.7095C26.8234 12.7838 27.0238 12.7898 27.2073 12.7263C27.3909 12.6628 27.5447 12.5343 27.6399 12.365C27.735 12.1957 27.7648 11.9975 27.7235 11.8078C27.2759 10.5285 26.7596 9.27428 26.177 8.05052C29.1612 9.13796 32.3634 9.49151 35.513 9.08132C39.2694 8.58997 43.0018 6.99396 46.7101 4.29328L47.2256 4.02012C47.7651 10.466 51.4734 13.0018 58.3504 11.6274C58.3837 14.6104 58.0108 17.584 57.2421 20.4664Z" fill="#2D3370"/>
<path d="M39.8887 15.7815C40.9308 15.7815 41.7755 14.9369 41.7755 13.8951C41.7755 12.8533 40.9308 12.0088 39.8887 12.0088C38.8467 12.0088 38.002 12.8533 38.002 13.8951C38.002 14.9369 38.8467 15.7815 39.8887 15.7815Z" fill="#2D3370"/>
</svg>
