<svg width="32" height="32" viewBox="0 0 32 32" fill="none" xmlns="http://www.w3.org/2000/svg">
<rect width="32" height="32" rx="8" fill="#ECEDF6"/>
<path d="M14.6667 11.4482C14.6667 10.5216 13.6153 9.78624 12.3333 10.0002C10.4513 10.3136 9.59132 14.0042 9.66665 14.6669C9.71999 15.1356 10.8167 15.8149 12.104 15.3336C12.9447 15.0189 13.4107 14.3669 13.6667 13.6669M17.5114 11.4482C17.5114 10.5216 18.5627 9.78624 19.8447 10.0002C21.7267 10.3136 22.5867 14.0042 22.5114 14.6669C22.4581 15.1356 21.3614 15.8149 20.0741 15.3336C19.2334 15.0189 18.8374 14.3669 18.5814 13.6669M13.3333 17.3335V17.6668M18.6667 17.3335V17.6668M10.9467 15.4982C10.7601 16.2187 10.666 16.96 10.6667 17.7042C10.6667 20.4856 13.0547 22.0002 16 22.0002C18.9453 22.0002 21.3333 20.4856 21.3333 17.7042C21.3333 16.9969 21.2253 16.2376 21.0047 15.4982M14.8427 11.4436C15.2239 11.3687 15.6115 11.3318 16 11.3336C16.52 11.3336 17 11.4056 17.4407 11.5376M15.5 18.8335H16.5L16 19.3335L15.5 18.8335Z" stroke="#424CA8" stroke-width="1.5" stroke-linecap="round" stroke-linejoin="round"/>
</svg>
