<svg width="48" height="48" viewBox="0 0 48 48" fill="none" xmlns="http://www.w3.org/2000/svg">
<g opacity="0.5" filter="url(#filter0_f_1999_30539)">
<path d="M25.0439 10.0781C25.2234 10.1778 25.4356 10.1998 25.6318 10.1396L26.9072 9.74805L27.9131 10.625C28.0679 10.7598 28.2711 10.8257 28.4756 10.8076L29.8047 10.6895L30.6064 11.7559C30.7298 11.9199 30.9144 12.027 31.1182 12.0518L32.4424 12.2129L33.0049 13.4229C33.0915 13.6089 33.2502 13.7518 33.4443 13.8184L34.7061 14.251L35.0049 15.5508C35.0508 15.7509 35.1764 15.9237 35.3525 16.0293L36.4971 16.7158L36.5186 18.0488C36.5219 18.2542 36.6084 18.4499 36.7588 18.5898L37.7354 19.498L37.4795 20.8076C37.4402 21.009 37.4847 21.2177 37.6025 21.3857L38.3691 22.4775L37.8467 23.7051C37.7662 23.8941 37.7662 24.1079 37.8467 24.2969L38.3691 25.5244L37.6025 26.6162C37.4847 26.7842 37.4401 26.9929 37.4795 27.1943L37.7354 28.5039L36.7588 29.4121C36.6085 29.552 36.5219 29.7478 36.5186 29.9531L36.4971 31.2861L35.3525 31.9717C35.1763 32.0773 35.0508 32.251 35.0049 32.4512L34.7061 33.751L33.4443 34.1836C33.2502 34.2502 33.0915 34.393 33.0049 34.5791L32.4424 35.7891L31.1182 35.9502C30.9144 35.975 30.7298 36.082 30.6064 36.2461L29.8047 37.3125L28.4756 37.1943C28.2711 37.1762 28.0679 37.2421 27.9131 37.377L26.9072 38.2539L25.6318 37.8623C25.4356 37.8021 25.2234 37.8241 25.0439 37.9238L23.8779 38.5723L22.7119 37.9238C22.5325 37.8241 22.3203 37.8021 22.124 37.8623L20.8486 38.2539L19.8428 37.377C19.688 37.2421 19.4848 37.1762 19.2803 37.1943L17.9512 37.3125L17.1494 36.2461C17.026 36.082 16.8415 35.975 16.6377 35.9502L15.3135 35.7891L14.751 34.5791C14.6644 34.393 14.5056 34.2502 14.3115 34.1836L13.0498 33.751L12.751 32.4512C12.705 32.251 12.5795 32.0773 12.4033 31.9717L11.2588 31.2861L11.2373 29.9531C11.234 29.7478 11.1474 29.552 10.9971 29.4121L10.0195 28.5039L10.2764 27.1943C10.3157 26.9929 10.2711 26.7842 10.1533 26.6162L9.38672 25.5244L9.90918 24.2969C9.98967 24.1079 9.98967 23.8941 9.90918 23.7051L9.38672 22.4775L10.1533 21.3857C10.2711 21.2178 10.3157 21.009 10.2764 20.8076L10.0195 19.498L10.9971 18.5898C11.1474 18.4499 11.234 18.2542 11.2373 18.0488L11.2588 16.7158L12.4033 16.0293C12.5794 15.9237 12.705 15.7509 12.751 15.5508L13.0498 14.251L14.3115 13.8184C14.5056 13.7517 14.6644 13.6089 14.751 13.4229L15.3135 12.2129L16.6377 12.0518C16.8415 12.0269 17.026 11.9199 17.1494 11.7559L17.9512 10.6895L19.2803 10.8076C19.4848 10.8257 19.688 10.7598 19.8428 10.625L20.8486 9.74805L22.124 10.1396C22.3203 10.1998 22.5325 10.1778 22.7119 10.0781L23.8779 9.42969L25.0439 10.0781Z" stroke="#4A33E9" stroke-width="0.754833"/>
</g>
<path opacity="0.7" d="M23.5798 7.86674C23.7978 7.96034 24.0447 7.9609 24.2633 7.86857L25.6823 7.26907L26.9413 8.15839C27.135 8.29511 27.376 8.34703 27.6088 8.30222L29.1222 8.01113L30.1684 9.14209C30.3295 9.31612 30.5548 9.41743 30.7919 9.42196L32.3321 9.4511L33.1202 10.7753C33.2416 10.979 33.4409 11.1246 33.6719 11.1784L35.1722 11.5277L35.6677 12.9858C35.744 13.2104 35.9085 13.3952 36.1233 13.4959L37.5191 14.1484L37.7 15.6789C37.7279 15.9145 37.8512 16.1283 38.0403 16.2714L39.2691 17.2011L39.1284 18.7351C39.1068 18.9714 39.1829 19.2068 39.3383 19.3861L40.3466 20.5504L39.8902 22.0214C39.8199 22.2479 39.8451 22.4937 39.9597 22.7014L40.7043 24.0507L39.9522 25.3948C39.8364 25.6018 39.8094 25.8469 39.8783 26.0738L40.3264 27.5486L39.3109 28.7067C39.1547 28.885 39.0773 29.1195 39.0975 29.3558L39.2299 30.8913L37.9949 31.8136C37.8051 31.9556 37.6811 32.169 37.6518 32.4042L37.4616 33.9335L36.0628 34.578C35.8474 34.6774 35.6818 34.8611 35.6042 35.0853L35.1001 36.5405L33.5977 36.8815C33.3663 36.9339 33.1662 37.0786 33.0437 37.2817L32.2479 38.6009L30.7068 38.6209C30.4696 38.6241 30.2443 38.7246 30.0823 38.8977L29.029 40.0224L27.518 39.7222C27.2853 39.676 27.0437 39.7265 26.8491 39.8623L25.5855 40.7443L24.1697 40.136C23.9518 40.0425 23.7048 40.0419 23.4863 40.1342L22.0672 40.7337L20.8093 39.8453C20.6155 39.7084 20.3737 39.6557 20.1407 39.7006L18.6284 39.9925L17.5822 38.8615C17.4212 38.6874 17.1959 38.5863 16.9587 38.5817L15.4184 38.5516L14.6304 37.2283C14.5091 37.0245 14.3097 36.8781 14.0786 36.8243L12.5775 36.4761L12.0819 35.017C12.0055 34.7923 11.8412 34.6085 11.6264 34.5079L10.2314 33.8543L10.0495 32.3238C10.0215 32.0884 9.89834 31.8744 9.70921 31.7313L8.48051 30.8026L8.62111 29.2677C8.64268 29.0316 8.56752 28.7968 8.41235 28.6176L7.40304 27.4534L7.85929 25.9814C7.92959 25.7548 7.90448 25.509 7.7898 25.3014L7.04538 23.953L7.79838 22.6088C7.91425 22.4018 7.94024 22.1559 7.87125 21.9289L7.42322 20.4551L8.43859 19.2961C8.59498 19.1177 8.67232 18.8834 8.65204 18.647L8.52065 17.1114L9.75469 16.1902C9.94476 16.0482 10.0684 15.834 10.0977 15.5985L10.2881 14.0703L11.6877 13.4247C11.903 13.3253 12.0688 13.1425 12.1464 12.9184L12.6504 11.4622L14.1529 11.1221C14.3843 11.0697 14.5844 10.9251 14.7069 10.7219L15.5027 9.40276L17.0428 9.38185C17.28 9.37869 17.5063 9.27914 17.6683 9.10589L18.7205 7.98041L20.2315 8.28053C20.4642 8.32675 20.7059 8.27625 20.9004 8.14052L22.1641 7.25945L23.5798 7.86674Z" stroke="url(#paint0_linear_1999_30539)" stroke-opacity="0.25" stroke-width="0.871832"/>
<path opacity="0.7" d="M25.0439 10.0781C25.2234 10.1778 25.4356 10.1998 25.6318 10.1396L26.9072 9.74805L27.9131 10.625C28.0679 10.7598 28.2711 10.8257 28.4756 10.8076L29.8047 10.6895L30.6064 11.7559C30.7298 11.9199 30.9144 12.027 31.1182 12.0518L32.4424 12.2129L33.0049 13.4229C33.0915 13.6089 33.2502 13.7518 33.4443 13.8184L34.7061 14.251L35.0049 15.5508C35.0508 15.7509 35.1764 15.9237 35.3525 16.0293L36.4971 16.7158L36.5186 18.0488C36.5219 18.2542 36.6084 18.4499 36.7588 18.5898L37.7354 19.498L37.4795 20.8076C37.4402 21.009 37.4847 21.2177 37.6025 21.3857L38.3691 22.4775L37.8467 23.7051C37.7662 23.8941 37.7662 24.1079 37.8467 24.2969L38.3691 25.5244L37.6025 26.6162C37.4847 26.7842 37.4401 26.9929 37.4795 27.1943L37.7354 28.5039L36.7588 29.4121C36.6085 29.552 36.5219 29.7478 36.5186 29.9531L36.4971 31.2861L35.3525 31.9717C35.1763 32.0773 35.0508 32.251 35.0049 32.4512L34.7061 33.751L33.4443 34.1836C33.2502 34.2502 33.0915 34.393 33.0049 34.5791L32.4424 35.7891L31.1182 35.9502C30.9144 35.975 30.7298 36.082 30.6064 36.2461L29.8047 37.3125L28.4756 37.1943C28.2711 37.1762 28.0679 37.2421 27.9131 37.377L26.9072 38.2539L25.6318 37.8623C25.4356 37.8021 25.2234 37.8241 25.0439 37.9238L23.8779 38.5723L22.7119 37.9238C22.5325 37.8241 22.3203 37.8021 22.124 37.8623L20.8486 38.2539L19.8428 37.377C19.688 37.2421 19.4848 37.1762 19.2803 37.1943L17.9512 37.3125L17.1494 36.2461C17.026 36.082 16.8415 35.975 16.6377 35.9502L15.3135 35.7891L14.751 34.5791C14.6644 34.393 14.5056 34.2502 14.3115 34.1836L13.0498 33.751L12.751 32.4512C12.705 32.251 12.5795 32.0773 12.4033 31.9717L11.2588 31.2861L11.2373 29.9531C11.234 29.7478 11.1474 29.552 10.9971 29.4121L10.0195 28.5039L10.2764 27.1943C10.3157 26.9929 10.2711 26.7842 10.1533 26.6162L9.38672 25.5244L9.90918 24.2969C9.98967 24.1079 9.98967 23.8941 9.90918 23.7051L9.38672 22.4775L10.1533 21.3857C10.2711 21.2178 10.3157 21.009 10.2764 20.8076L10.0195 19.498L10.9971 18.5898C11.1474 18.4499 11.234 18.2542 11.2373 18.0488L11.2588 16.7158L12.4033 16.0293C12.5794 15.9237 12.705 15.7509 12.751 15.5508L13.0498 14.251L14.3115 13.8184C14.5056 13.7517 14.6644 13.6089 14.751 13.4229L15.3135 12.2129L16.6377 12.0518C16.8415 12.0269 17.026 11.9199 17.1494 11.7559L17.9512 10.6895L19.2803 10.8076C19.4848 10.8257 19.688 10.7598 19.8428 10.625L20.8486 9.74805L22.124 10.1396C22.3203 10.1998 22.5325 10.1778 22.7119 10.0781L23.8779 9.42969L25.0439 10.0781Z" stroke="#4A33E9" stroke-width="0.754833"/>
<path opacity="0.1" d="M23.8779 15.9287C23.9942 16.3201 24.5635 16.35 24.7207 15.9736C24.7957 16.3744 25.3599 16.4638 25.5557 16.1064C25.589 16.5122 26.139 16.6594 26.3711 16.3252C26.362 16.7324 26.8947 16.9361 27.1602 16.627C27.1076 17.0315 27.6165 17.2905 27.9131 17.0107C27.8189 17.4073 28.297 17.7175 28.6211 17.4707C28.486 17.8553 28.9302 18.2147 29.2783 18.0029C29.104 18.3714 29.5076 18.7743 29.876 18.5996C29.6635 18.9477 30.0226 19.3915 30.4072 19.2568C30.1606 19.5805 30.4703 20.0574 30.8662 19.9648C30.5876 20.2611 30.8467 20.7686 31.25 20.7178C30.942 20.9832 31.1464 21.5152 31.5527 21.5068C31.219 21.7388 31.3666 22.2881 31.7715 22.3223C31.4151 22.5179 31.5043 23.0807 31.9033 23.1572C31.5286 23.3151 31.5591 23.8843 31.9492 24.001C31.5589 24.1177 31.529 24.6862 31.9043 24.8438C31.5045 24.9194 31.4152 25.4827 31.7715 25.6787C31.3667 25.7128 31.2195 26.262 31.5527 26.4941C31.1464 26.4859 30.9428 27.0178 31.251 27.2832C30.8474 27.2316 30.5881 27.7396 30.8662 28.0361C30.4707 27.9438 30.1614 28.4205 30.4072 28.7441C30.0229 28.6099 29.6644 29.0535 29.876 29.4014C29.5077 29.2271 29.104 29.6307 29.2783 29.999C28.9304 29.7875 28.4868 30.1459 28.6211 30.5303C28.2975 30.2845 27.8208 30.5937 27.9131 30.9893C27.6166 30.7111 27.1086 30.9704 27.1602 31.374C26.8947 31.0659 26.3628 31.2694 26.3711 31.6758C26.139 31.3426 25.5898 31.4898 25.5557 31.8945C25.3597 31.5383 24.7963 31.6275 24.7207 32.0273C24.5632 31.652 23.9946 31.6819 23.8779 32.0723C23.7613 31.6821 23.192 31.6516 23.0342 32.0264C22.9577 31.6274 22.3948 31.5382 22.1992 31.8945C22.1651 31.4896 21.6157 31.3421 21.3838 31.6758C21.3921 31.2694 20.8602 31.0651 20.5947 31.373C20.6455 30.9697 20.138 30.7106 19.8418 30.9893C19.9344 30.5934 19.4575 30.2837 19.1338 30.5303C19.2684 30.1456 18.8246 29.7865 18.4766 29.999C18.6512 29.6306 18.2483 29.2271 17.8799 29.4014C18.0916 29.0532 17.7322 28.609 17.3477 28.7441C17.5944 28.42 17.2843 27.9419 16.8877 28.0361C17.1675 27.7395 16.9084 27.2307 16.5039 27.2832C16.813 27.0177 16.6094 26.485 16.2021 26.4941C16.5364 26.2621 16.3891 25.7121 15.9834 25.6787C16.3407 25.4829 16.2514 24.9188 15.8506 24.8438C16.227 24.6865 16.197 24.1172 15.8057 24.001C16.1969 23.8848 16.2274 23.3147 15.8516 23.1572C16.2515 23.0813 16.3408 22.5177 15.9834 22.3223C16.3892 22.2888 16.5369 21.7387 16.2021 21.5068C16.6093 21.516 16.8138 20.9833 16.5049 20.7178C16.9091 20.7695 17.168 20.2612 16.8877 19.9648C17.2846 20.0593 17.5953 19.581 17.3477 19.2568C17.7327 19.3924 18.0921 18.948 17.8789 18.5996C18.2479 18.7754 18.6524 18.3709 18.4766 18.002C18.825 18.2151 19.2694 17.8558 19.1338 17.4707C19.458 17.7183 19.9363 17.4076 19.8418 17.0107C20.1381 17.291 20.6465 17.0322 20.5947 16.6279C20.8602 16.9369 21.3929 16.7324 21.3838 16.3252C21.6157 16.6599 22.1658 16.5123 22.1992 16.1064C22.3946 16.4639 22.9583 16.3746 23.0342 15.9746C23.1917 16.3504 23.7618 16.3199 23.8779 15.9287Z" stroke="#4A33E9" stroke-width="0.754833"/>
<g opacity="0.25" filter="url(#filter1_f_1999_30539)">
<circle cx="23.872" cy="24.0009" r="4.6884" fill="#4A33E9"/>
</g>
<g filter="url(#filter2_f_1999_30539)">
<circle cx="23.872" cy="24.0009" r="4.6884" fill="#4A33E9"/>
</g>
<defs>
<filter id="filter0_f_1999_30539" x="0.381152" y="0.426074" width="46.9916" height="47.1498" filterUnits="userSpaceOnUse" color-interpolation-filters="sRGB">
<feFlood flood-opacity="0" result="BackgroundImageFix"/>
<feBlend mode="normal" in="SourceGraphic" in2="BackgroundImageFix" result="shape"/>
<feGaussianBlur stdDeviation="4.31333" result="effect1_foregroundBlur_1999_30539"/>
</filter>
<filter id="filter1_f_1999_30539" x="10.5569" y="10.6858" width="26.6283" height="26.6303" filterUnits="userSpaceOnUse" color-interpolation-filters="sRGB">
<feFlood flood-opacity="0" result="BackgroundImageFix"/>
<feBlend mode="normal" in="SourceGraphic" in2="BackgroundImageFix" result="shape"/>
<feGaussianBlur stdDeviation="4.31333" result="effect1_foregroundBlur_1999_30539"/>
</filter>
<filter id="filter2_f_1999_30539" x="18.7523" y="18.8812" width="10.2377" height="10.2396" filterUnits="userSpaceOnUse" color-interpolation-filters="sRGB">
<feFlood flood-opacity="0" result="BackgroundImageFix"/>
<feBlend mode="normal" in="SourceGraphic" in2="BackgroundImageFix" result="shape"/>
<feGaussianBlur stdDeviation="0.215667" result="effect1_foregroundBlur_1999_30539"/>
</filter>
<linearGradient id="paint0_linear_1999_30539" x1="22.1136" y1="6.76299" x2="25.6364" y2="41.2402" gradientUnits="userSpaceOnUse">
<stop stop-color="#4A33E9"/>
<stop offset="1" stop-color="#2A1D83"/>
</linearGradient>
</defs>
</svg>
