<svg width="80" height="80" viewBox="0 0 80 80" fill="none" xmlns="http://www.w3.org/2000/svg">
<g opacity="0.5" filter="url(#filter0_f_1901_34965)">
<path d="M41.9658 16.5518C42.2682 16.7199 42.6263 16.7568 42.957 16.6553L45.1045 15.9961L46.7988 17.4717C47.0596 17.699 47.4015 17.8108 47.7461 17.7803L49.9844 17.5811L51.334 19.377C51.5418 19.6535 51.8538 19.8342 52.1973 19.876L54.4268 20.1465L55.374 22.1836C55.5198 22.4972 55.7871 22.7383 56.1143 22.8506L58.2393 23.5791L58.7422 25.7695C58.8196 26.1066 59.0314 26.3974 59.3281 26.5752L61.2549 27.7305L61.292 29.9766C61.2976 30.3224 61.444 30.6511 61.6973 30.8867L63.3418 32.417L62.9102 34.6221C62.8438 34.9615 62.9195 35.3136 63.1182 35.5967L64.4092 37.4355L63.5283 39.502C63.3928 39.8202 63.3928 40.1807 63.5283 40.499L64.4092 42.5654L63.1182 44.4043C62.9194 44.6874 62.8438 45.0395 62.9102 45.3789L63.3418 47.584L61.6973 49.1143C61.444 49.3499 61.2976 49.6785 61.292 50.0244L61.2549 52.2705L59.3281 53.4258C59.0314 53.6036 58.8196 53.8944 58.7422 54.2314L58.2393 56.4219L56.1143 57.1504C55.7871 57.2627 55.5198 57.5037 55.374 57.8174L54.4268 59.8545L52.1973 60.125C51.8539 60.1667 51.5418 60.3475 51.334 60.624L49.9844 62.4199L47.7461 62.2207C47.4015 62.1901 47.0596 62.302 46.7988 62.5293L45.1045 64.0049L42.957 63.3457C42.6263 63.2441 42.2682 63.2811 41.9658 63.4492L40.002 64.541L38.0391 63.4492C37.7367 63.2811 37.3786 63.2441 37.0479 63.3457L34.9004 64.0049L33.2061 62.5293C32.9453 62.302 32.6034 62.1902 32.2588 62.2207L30.0205 62.4199L28.6709 60.624C28.463 60.3475 28.151 60.1667 27.8076 60.125L25.5781 59.8545L24.6309 57.8174C24.4851 57.5038 24.2177 57.2627 23.8906 57.1504L21.7646 56.4219L21.2627 54.2314C21.1853 53.8944 20.9734 53.6036 20.6768 53.4258L18.749 52.2705L18.7129 50.0244C18.7073 49.6785 18.5609 49.3499 18.3076 49.1143L16.6631 47.584L17.0938 45.3789C17.1602 45.0394 17.0855 44.6874 16.8867 44.4043L15.5957 42.5654L16.4766 40.499C16.6121 40.1807 16.6121 39.8202 16.4766 39.502L15.5957 37.4355L16.8867 35.5967C17.0855 35.3136 17.1601 34.9615 17.0938 34.6221L16.6631 32.417L18.3076 30.8867C18.5609 30.6511 18.7073 30.3224 18.7129 29.9766L18.749 27.7305L20.6768 26.5752C20.9734 26.3974 21.1853 26.1066 21.2627 25.7695L21.7646 23.5791L23.8906 22.8506C24.2177 22.7383 24.4851 22.4972 24.6309 22.1836L25.5781 20.1465L27.8076 19.876C28.151 19.8342 28.463 19.6535 28.6709 19.377L30.0205 17.5811L32.2588 17.7803C32.6033 17.8108 32.9453 17.6989 33.2061 17.4717L34.9004 15.9961L37.0479 16.6553C37.3786 16.7568 37.7367 16.7199 38.0391 16.5518L40.002 15.46L41.9658 16.5518Z" stroke="#4A33E9" stroke-width="1.2713"/>
</g>
<path opacity="0.7" d="M39.5028 12.8262C39.8698 12.9838 40.2856 12.9848 40.6536 12.8294L43.0447 11.8193L45.164 13.3168C45.4903 13.5473 45.8968 13.6347 46.2892 13.5591L48.8364 13.0681L50.5989 14.9741C50.8702 15.2673 51.2498 15.4373 51.6492 15.4449L54.2429 15.494L55.5702 17.7242C55.7746 18.0675 56.1104 18.3132 56.4995 18.4037L59.0275 18.9916L59.8616 21.4479C59.9901 21.8262 60.2676 22.1364 60.6295 22.3059L62.9792 23.4067L63.2846 25.9828C63.3317 26.3796 63.5391 26.7405 63.8578 26.9815L65.9271 28.5468L65.6905 31.1311C65.6541 31.5288 65.7814 31.9241 66.0429 32.226L67.7423 34.1874L66.9736 36.6661C66.8552 37.0477 66.8974 37.4607 67.0906 37.8105L68.3446 40.0825L67.077 42.3471C66.882 42.6956 66.8373 43.1085 66.9534 43.4906L67.7077 45.9736L65.9978 47.9251C65.7344 48.2256 65.6043 48.621 65.6384 49.0191L65.8603 51.6037L63.7818 53.157C63.4617 53.3961 63.2526 53.7561 63.2033 54.1526L62.8832 56.7268L60.5264 57.8138C60.1636 57.9811 59.8844 58.2897 59.7537 58.6672L58.9049 61.1198L56.3748 61.6924C55.9852 61.7807 55.6477 62.0239 55.4413 62.366L54.1008 64.5889L51.5069 64.6233C51.1073 64.6286 50.7269 64.7964 50.4539 65.0882L48.6813 66.9833L46.1353 66.4778C45.7435 66.4 45.3365 66.485 45.0089 66.7136L42.8812 68.1983L40.4972 67.1746C40.1302 67.017 39.7145 67.016 39.3464 67.1714L36.9553 68.1814L34.836 66.684C34.5097 66.4535 34.1032 66.3661 33.7108 66.4417L31.1636 66.9326L29.4011 65.0267C29.1298 64.7335 28.7502 64.5635 28.3508 64.5559L25.7571 64.5068L24.4298 62.2766C24.2254 61.9333 23.8896 61.6876 23.5005 61.597L20.9725 61.0092L20.1385 58.5529C20.0099 58.1746 19.7324 57.8644 19.3705 57.6949L17.0208 56.594L16.7154 54.018C16.6684 53.6212 16.4609 53.2603 16.1422 53.0193L14.0729 51.454L14.3095 48.8697C14.3459 48.472 14.2186 48.0767 13.9571 47.7748L12.2577 45.8134L13.0264 43.3347C13.1448 42.9531 13.1026 42.5401 12.9094 42.1903L11.6554 39.9183L12.923 37.6537C13.118 37.3052 13.1627 36.8923 13.0466 36.5102L12.2923 34.0271L14.0022 32.0756C14.2656 31.7752 14.3958 31.3798 14.3616 30.9817L14.1397 28.3971L16.2182 26.8438C16.5383 26.6046 16.7474 26.2447 16.7967 25.8482L17.1168 23.274L19.4736 22.187C19.8364 22.0196 20.1156 21.7111 20.2463 21.3335L21.0951 18.881L23.6252 18.3084C24.0148 18.2201 24.3523 17.9768 24.5587 17.6348L25.8992 15.4118L28.4932 15.3775C28.8927 15.3722 29.2731 15.2044 29.5461 14.9126L31.3187 13.0175L33.8647 13.523C34.2565 13.6008 34.6635 13.5158 34.9911 13.2872L37.1188 11.8025L39.5028 12.8262Z" stroke="url(#paint0_linear_1901_34965)" stroke-opacity="0.25" stroke-width="1.46835"/>
<path opacity="0.7" d="M41.9658 16.5518C42.2682 16.7199 42.6263 16.7568 42.957 16.6553L45.1045 15.9961L46.7988 17.4717C47.0596 17.699 47.4015 17.8108 47.7461 17.7803L49.9844 17.5811L51.334 19.377C51.5418 19.6535 51.8538 19.8342 52.1973 19.876L54.4268 20.1465L55.374 22.1836C55.5198 22.4972 55.7871 22.7383 56.1143 22.8506L58.2393 23.5791L58.7422 25.7695C58.8196 26.1066 59.0314 26.3974 59.3281 26.5752L61.2549 27.7305L61.292 29.9766C61.2976 30.3224 61.444 30.6511 61.6973 30.8867L63.3418 32.417L62.9102 34.6221C62.8438 34.9615 62.9195 35.3136 63.1182 35.5967L64.4092 37.4355L63.5283 39.502C63.3928 39.8202 63.3928 40.1807 63.5283 40.499L64.4092 42.5654L63.1182 44.4043C62.9194 44.6874 62.8438 45.0395 62.9102 45.3789L63.3418 47.584L61.6973 49.1143C61.444 49.3499 61.2976 49.6785 61.292 50.0244L61.2549 52.2705L59.3281 53.4258C59.0314 53.6036 58.8196 53.8944 58.7422 54.2314L58.2393 56.4219L56.1143 57.1504C55.7871 57.2627 55.5198 57.5037 55.374 57.8174L54.4268 59.8545L52.1973 60.125C51.8539 60.1667 51.5418 60.3475 51.334 60.624L49.9844 62.4199L47.7461 62.2207C47.4015 62.1901 47.0596 62.302 46.7988 62.5293L45.1045 64.0049L42.957 63.3457C42.6263 63.2441 42.2682 63.2811 41.9658 63.4492L40.002 64.541L38.0391 63.4492C37.7367 63.2811 37.3786 63.2441 37.0479 63.3457L34.9004 64.0049L33.2061 62.5293C32.9453 62.302 32.6034 62.1902 32.2588 62.2207L30.0205 62.4199L28.6709 60.624C28.463 60.3475 28.151 60.1667 27.8076 60.125L25.5781 59.8545L24.6309 57.8174C24.4851 57.5038 24.2177 57.2627 23.8906 57.1504L21.7646 56.4219L21.2627 54.2314C21.1853 53.8944 20.9734 53.6036 20.6768 53.4258L18.749 52.2705L18.7129 50.0244C18.7073 49.6785 18.5609 49.3499 18.3076 49.1143L16.6631 47.584L17.0938 45.3789C17.1602 45.0394 17.0855 44.6874 16.8867 44.4043L15.5957 42.5654L16.4766 40.499C16.6121 40.1807 16.6121 39.8202 16.4766 39.502L15.5957 37.4355L16.8867 35.5967C17.0855 35.3136 17.1601 34.9615 17.0938 34.6221L16.6631 32.417L18.3076 30.8867C18.5609 30.6511 18.7073 30.3224 18.7129 29.9766L18.749 27.7305L20.6768 26.5752C20.9734 26.3974 21.1853 26.1066 21.2627 25.7695L21.7646 23.5791L23.8906 22.8506C24.2177 22.7383 24.4851 22.4972 24.6309 22.1836L25.5781 20.1465L27.8076 19.876C28.151 19.8342 28.463 19.6535 28.6709 19.377L30.0205 17.5811L32.2588 17.7803C32.6033 17.8108 32.9453 17.6989 33.2061 17.4717L34.9004 15.9961L37.0479 16.6553C37.3786 16.7568 37.7367 16.7199 38.0391 16.5518L40.002 15.46L41.9658 16.5518Z" stroke="#4A33E9" stroke-width="1.2713"/>
<path opacity="0.1" d="M40.002 26.4062C40.1983 27.0645 41.1581 27.1148 41.4229 26.4814C41.5499 27.1559 42.4987 27.306 42.8281 26.7041C42.8841 27.388 43.8115 27.6362 44.2021 27.0723C44.1863 27.7582 45.0828 28.102 45.5303 27.582C45.4427 28.2627 46.2995 28.6989 46.7988 28.2285C46.641 28.8962 47.4465 29.4189 47.9922 29.0029C47.765 29.6505 48.5114 30.2548 49.0977 29.8984C48.8043 30.5186 49.4833 31.1972 50.1035 30.9043C49.7469 31.4904 50.3516 32.2364 50.999 32.0098C50.5829 32.5553 51.1061 33.3602 51.7734 33.2031C51.3031 33.7023 51.7398 34.5585 52.4199 34.4717C51.9003 34.919 52.2444 35.8149 52.9297 35.7998C52.3663 36.1903 52.6147 37.1171 53.2979 37.1738C52.6966 37.5033 52.8471 38.4513 53.5205 38.5791C52.8879 38.844 52.9387 39.803 53.5957 40C52.9385 40.1968 52.8882 41.1558 53.5205 41.4209C52.8471 41.5485 52.697 42.4965 53.2979 42.8262C52.6149 42.8828 52.3668 43.8095 52.9297 44.2002C52.2445 44.1851 51.901 45.0809 52.4199 45.5283C51.7401 45.4417 51.3039 46.2977 51.7734 46.7969C51.1064 46.64 50.5839 47.4448 50.999 47.9902C50.352 47.764 49.7477 48.5097 50.1035 49.0957C49.4837 48.8033 48.8052 49.4817 49.0977 50.1016C48.5117 49.7458 47.766 50.35 47.9922 50.9971C47.4467 50.5818 46.642 51.1045 46.7988 51.7715C46.2996 51.3019 45.4436 51.7381 45.5303 52.418C45.0829 51.8991 44.1871 52.2426 44.2021 52.9277C43.8115 52.3649 42.8848 52.6129 42.8281 53.2959C42.4984 52.6951 41.5505 52.8451 41.4229 53.5186C41.1577 52.8862 40.1988 52.9366 40.002 53.5938C39.8049 52.9367 38.8459 52.886 38.5811 53.5186C38.4533 52.8451 37.5052 52.6947 37.1758 53.2959C37.1191 52.6128 36.1923 52.3643 35.8018 52.9277C35.8169 52.2424 34.9209 51.8984 34.4736 52.418C34.5604 51.7378 33.7042 51.3012 33.2051 51.7715C33.3622 51.1041 32.5572 50.581 32.0117 50.9971C32.2383 50.3496 31.4924 49.7449 30.9062 50.1016C31.1992 49.4814 30.5206 48.8023 29.9004 49.0957C30.2568 48.5094 29.6524 47.7631 29.0049 47.9902C29.4209 47.4445 28.8981 46.6391 28.2305 46.7969C28.7009 46.2975 28.2645 45.4408 27.584 45.5283C28.1039 45.0809 27.7602 44.1843 27.0742 44.2002C27.6382 43.8096 27.3899 42.8821 26.7061 42.8262C27.3079 42.4967 27.1578 41.5479 26.4834 41.4209C27.1168 41.1561 27.0664 40.1964 26.4082 40C27.0663 39.8034 27.117 38.8436 26.4834 38.5791C27.1579 38.4519 27.3083 37.5031 26.7061 37.1738C27.39 37.1178 27.6387 36.1902 27.0742 35.7998C27.7604 35.8157 28.1045 34.919 27.584 34.4717C28.2649 34.5594 28.7016 33.7024 28.2305 33.2031C28.8985 33.3612 29.4217 32.5555 29.0049 32.0098C29.6528 32.2374 30.2577 31.4907 29.9004 30.9043C30.5209 31.1982 31.2001 30.5189 30.9062 29.8984C31.4927 30.2557 32.2393 29.6508 32.0117 29.0029C32.5575 29.4198 33.3631 28.8965 33.2051 28.2285C33.7044 28.6997 34.5613 28.2629 34.4736 27.582C34.921 28.1026 35.8177 27.7585 35.8018 27.0723C36.1922 27.6367 37.1198 27.3881 37.1758 26.7041C37.505 27.3064 38.4539 27.1559 38.5811 26.4814C38.8456 27.1151 39.8054 27.0643 40.002 26.4062Z" stroke="#4A33E9" stroke-width="1.2713"/>
<g opacity="0.25" filter="url(#filter1_f_1901_34965)">
<circle cx="39.9978" cy="40.0007" r="7.89626" fill="#4A33E9"/>
</g>
<g filter="url(#filter2_f_1901_34965)">
<circle cx="39.9978" cy="40.0007" r="7.89626" fill="#4A33E9"/>
</g>
<defs>
<filter id="filter0_f_1901_34965" x="0.431825" y="0.295106" width="79.1403" height="79.4108" filterUnits="userSpaceOnUse" color-interpolation-filters="sRGB">
<feFlood flood-opacity="0" result="BackgroundImageFix"/>
<feBlend mode="normal" in="SourceGraphic" in2="BackgroundImageFix" result="shape"/>
<feGaussianBlur stdDeviation="7.26456" result="effect1_foregroundBlur_1901_34965"/>
</filter>
<filter id="filter1_f_1901_34965" x="17.5724" y="17.5754" width="44.8512" height="44.8512" filterUnits="userSpaceOnUse" color-interpolation-filters="sRGB">
<feFlood flood-opacity="0" result="BackgroundImageFix"/>
<feBlend mode="normal" in="SourceGraphic" in2="BackgroundImageFix" result="shape"/>
<feGaussianBlur stdDeviation="7.26456" result="effect1_foregroundBlur_1901_34965"/>
</filter>
<filter id="filter2_f_1901_34965" x="31.3751" y="31.378" width="17.2459" height="17.2459" filterUnits="userSpaceOnUse" color-interpolation-filters="sRGB">
<feFlood flood-opacity="0" result="BackgroundImageFix"/>
<feBlend mode="normal" in="SourceGraphic" in2="BackgroundImageFix" result="shape"/>
<feGaussianBlur stdDeviation="0.363228" result="effect1_foregroundBlur_1901_34965"/>
</filter>
<linearGradient id="paint0_linear_1901_34965" x1="37.0334" y1="10.967" x2="42.9666" y2="69.0338" gradientUnits="userSpaceOnUse">
<stop stop-color="#4A33E9"/>
<stop offset="1" stop-color="#2A1D83"/>
</linearGradient>
</defs>
</svg>
